<svg xmlns="http://www.w3.org/2000/svg" width="155.473" height="85.535" viewBox="0 0 155.473 85.535">
  <g id="Group_280" data-name="Group 280" transform="translate(-6893.929 -41.979)">
    <path id="Path_11565" data-name="Path 11565" d="M6922.653,86.372c5.57-4.018,16.565-11.874,21.169-14.825s16.731-11.587,20.792-17.03a6.739,6.739,0,0,0-.448-9.128c-2.191-2.332-3.843-4.252-11.26-3.031s-11.009,3.545-13.777,4.773c0,0-2.855,1.59-4.461,2.639a26.972,26.972,0,0,1,1.882-3.484,2.454,2.454,0,0,0-.313-3.549c-1.553-1.317-2.647-.018-3.56,1.216s-5.5,7.916-7.641,10.286-6.374,4.593-9.083,7.627c-2.59,2.9-2.858,4.534-2.491,5.325a4.555,4.555,0,0,0,.28.514,57.142,57.142,0,0,1,10.353-9.491c-.957,1.2-2.028,3.143-3.55,5.636-.3.489-5.9,9.34-7.01,11.331a140.8,140.8,0,0,0-7.987,14.165c-3.548,7.5-5.172,11.214-6.244,14.509s-4.749,14.93-5.322,19.93c-.2,1.884.181,2.587,1.008,3.192.685.5,2.145,1.323,3.1-1.217s1.249-4.027,2.2-7.227a137.515,137.515,0,0,1,5.186-14.87c1.457-3.093,3.2-6.789,3.634-7.294s.765-.57,1.229-.209,2.65,2.976,8.373,3.3,16.066,2.142,20.39,4.721c3.342,1.992,3.662,3.908,4.663,3.325.832-.486-.13-1.864-1.369-3.153-1.324-1.376-7.571-6.826-13.606-7.951-4.521-.838-10.246-2.008-11.767-2.287s-2.735-.58-2.48-.957,2.542-2.768,8.112-6.785m-5.124-7.042c1.95-7.054,11.118-19.766,12.528-22.162s4.682-5.012,7.971-6.68a42.466,42.466,0,0,1,7.555-2.769,41.467,41.467,0,0,1,16.464-1.182c.882.165.893.826.2,2.088-3.263,6.078-11.4,11.178-20.763,17.269s-22,14.945-23.583,16.016c-.585.395-.693.171-.74-.109s-.216-.355.369-2.471" fill="#d0604a"/>
    <path id="Path_11566" data-name="Path 11566" d="M7049.342,79.038c-.092-.123-.33-.092-.571.03a23.237,23.237,0,0,0-2.9,1.792c-1.838,1.279-3.705,2.768-5.543,4.078a53.209,53.209,0,0,1-8.519,5.353c-4.107,2.006-6.971,2.335-7.869,1.661s-.69-2.739-.282-4.135a6.286,6.286,0,0,1,.722-1.88c.173-.288.081-.429.961-.429a3.4,3.4,0,0,0,2.2-.786c.973-.615,3.2-2.539,4.932-3.831s4.409-3.479,3.363-5.977-4.179-1.393-5.724,0a31.191,31.191,0,0,0-5.06,5.447c-1.748,2.473-1.885,2.312-2.21,2.4s-5.218.972-6.593.619a3.463,3.463,0,0,1-2.283-1.484,1.557,1.557,0,0,0-2.254-.247c-.926.636-2.085,1.736-6.5,5.747s-13.481,11.819-14.573,12.5c-.756.519-1.279.892-1.524.666s-.264-.672.271-1.883,5.219-10.045,8.916-15.7,8.983-11.744,10.346-13.5,1.183-2.462.6-3.561a5.617,5.617,0,0,0-.775-1.174c-.169-.216-.755-.6-1.435.139s-2.577,2.763-3.766,4.182-6.961,9.152-8.661,10.913a101.082,101.082,0,0,1-12.77,9.542c-3.375,1.974-8.5,4.994-10.166,3.7s-1.157-3.556-.911-4.36a3.388,3.388,0,0,1,2.774-2.7,11.5,11.5,0,0,0,6.147-3.326c1.8-1.87,3.828-4.805,2.431-6.763s-3.6-.649-5.434.931-4.292,4.606-5.711,5.855-9.538,7.992-13.258,10.2-7.371,4.044-8.545,3.325-.765-3.17-.64-3.874.935-3.973.935-3.973c.119-.485.351-1.056.773-.975.858.17,1.28.264,4-1.773s3.226-2.687,4.431-5.126.617-3.44,0-4.214-2.687-1.98-5.435-.14c-2.9,1.947-5.8,8.536-6.452,11.1a20.33,20.33,0,0,0-.823,5.263c0,2.471.788,5.2,2.9,6.306s4.109,1.034,7.661-1.676a95.209,95.209,0,0,0,12.161-10.779c.262-.267.457-.486.566-.4s.051.282-.087.572-1.829,4.271.787,7.237,7.769.354,8.3.16c2.746-1.32,7.389-5.315,9.384-6.826s3-2.587,3.228-2.724c.263-.256.541-.44.6-.361s-.139.383-.347.685a44.707,44.707,0,0,0-3.664,6.357c-1.962,4.012-5.017,9.235-1.112,12.628s7.409.352,10.144-2.562,7.137-7.74,8.953-9.81,5.4-6.546,6.15-7.266.936-1.009,1.44-1.018a2.42,2.42,0,0,1,1.428.616c.654.452.972,1.276,4.075.7a20.012,20.012,0,0,1,3.805-.479,17.362,17.362,0,0,0-1.341,5.435,4.924,4.924,0,0,0,1.6,3.611,7.093,7.093,0,0,0,5.557,1.2,15.934,15.934,0,0,0,6.76-3.07c2.532-1.808,4.768-3.67,7.316-5.664s5.8-5.46,6.918-5.962c.327-.192.307-.416.214-.539M7025.9,82.906a40.935,40.935,0,0,1,2.434-3.517,13.972,13.972,0,0,1,3.63-3.177c1.141-.723,1.607-.447,1.714-.247.233.433-1.35,2.181-3.009,3.791s-3,2.878-3.828,3.525c-.617.48-1.02.418-1.081.325s-.006-.351.14-.7m-50.291-2.287a18.664,18.664,0,0,1,3.46-2.658c.488-.211.719-.307.834-.234s.1.5-.2.871a25.533,25.533,0,0,1-2.244,2.941c-.834.775-3.822,3.472-4.516,2.974-.518-.369,1.876-3.165,2.664-3.894m-24.483,3.507c.323-2.134,2.655-4.811,3.753-5.767s2.322-1.5,2.87-1.034c.69.583-.926,2.581-2.192,4.121a14.925,14.925,0,0,1-4.431,3.565,2.61,2.61,0,0,1,0-.885" fill="#d0604a"/>
  </g>
</svg>
