<?xml version="1.0" encoding="UTF-8"?>
<svg id="Calque_2" xmlns="http://www.w3.org/2000/svg" viewBox="0 0 267.29061 302.62231">
  <defs>
    <style>
      .cls-1 {
        font-family: Syne-SemiBold, Syne;
        font-size: 42.79492px;
        font-variation-settings: 'wght' 600;
        font-weight: 600;
      }

      .cls-1, .cls-2, .cls-3 {
        fill: #fff;
      }

      .cls-4 {
        letter-spacing: -.04997em;
      }

      .cls-5 {
        letter-spacing: -.07398em;
      }

      .cls-3 {
        opacity: .6;
      }

      .cls-6 {
        letter-spacing: -.04199em;
      }
    </style>
  </defs>
  <g id="_x35_">
    <g>
      <g>
        <path class="cls-2" d="M226.70753,57.83021c-2.9804-4.45419-19.15718-25.66662-22.13988-29.89579-.50623-.67035-.70267-.87099-1.54125-1.34902-8.88109-5.43167-27.80014-16.98474-32.92115-20.1079-.50799-.29264-.70261-.34985-1.35415-.47669-.58742-.11252-1.5621-.27866-2.87398-.51104-8.25776-1.41103-26.87287-4.77086-31.05874-5.45703-.61569-.07579-.80878-.01205-1.55186.10969-8.91274,1.55245-26.99408,4.7619-33.03777,5.81531-.88601.17727-1.22402.25938-2.05764.81204-.65791.40048-1.68645,1.02993-2.9878,1.8246-8.4481,5.20804-26.63496,16.2209-30.14813,18.43386-.55045.4008-.60427.62904-1.1698,1.34736-5.70447,7.63843-18.43815,24.84778-21.2657,28.62619-.39791.59939-.644.85252-.82565,1.61568-2.17069,7.25351-7.12192,24.519-8.3738,28.68858-.19637.78087-.31719,1.13396-.28083,2.00072-.04512,8.06181.03072,26.81285-.00015,31.48179.02847.75717-.00208,1.15117.30128,1.90073,2.36043,6.703,8.05972,22.33362,9.42295,26.21033.29928.76188.43904,1.13119.97984,1.82466,3.91121,5.44785,10.28858,14.1034,14.56009,20.02638.72584,1.02108,1.41771,1.93324,2.11495,2.90857.96798,1.51379,2.19345,2.15662,3.59611,3.28759,5.00065,3.77779,13.27651,10.22287,18.64137,14.29471,1.02402.78366,1.08482.80514,2.30396,1.26729,8.18648,2.94024,22.25137,8.67044,28.71855,10.70098,4.65021.61229,13.53749,1.36273,18.19765,1.90032,1.72283.24052,2.75049.23829,4.37072.04877,4.2339-.48035,13.58669-1.3487,18.42059-1.89753,5.94586-1.73943,20.56145-7.72911,29.06057-10.78494.90275-.30588,1.26401-.52435,1.97467-1.05311,3.67808-2.74739,14.11353-10.86778,19.08459-14.63262.52238-.38194.97009-.75748,1.46178-1.12165,1.09197-.78324,1.29748-1.15324,2.10641-2.25151,4.87115-6.69822,11.78285-16.20642,16.27095-22.37844.81189-1.11942.8493-1.15719,1.306-2.41234,2.81348-7.79724,6.77043-18.82328,9.34655-25.98995.29765-.71682.26398-1.11867.28298-1.84807-.0547-4.59045.04085-23.12178.0001-31.39116.04635-.95075-.06502-1.28782-.28929-2.12011-1.46761-4.55575-7.06244-24.73279-8.63831-29.43306l-.0068-.0142ZM215.57502,44.79728c.22226.43322.224.78501.095,1.22265-2.0544,6.64927-5.77967,18.71293-8.05739,26.06473-1.03025,3.32654-1.86705,6.04455-2.29487,7.41271-.03773.11401-.07546.21765-.11278.31111-.28691.70941-.51731.81247-.80328.5846-4.13027-5.56879-31.73138-45.04151-35.67656-50.7513-.47367-.59956,3.52673.63282,5.2307.95929,3.77612.89065,9.19582,2.16885,14.74943,3.47864,8.3513,1.9717,14.56747,3.43413,21.74416,5.12823.88026.21319,1.14526.20059,1.92213,1.14409.19603.23926.39319.48631.59289.74991.82229,1.11538,1.96441,2.52427,2.59589,3.66548l.01468.02985ZM67.49005,141.23343c-.02879-.39971.32425-.80806.66582-1.04721,6.15717-4.59448,16.14968-12.10363,23.56078-17.64048,5.53959-4.14444,9.21919-6.90461,13.21785-9.89617.3701-.30458.873-.63561,1.22659-.53514.45151.05953.80829.49539.88092.97006,1.05486,5.67982,9.37526,50.3351,10.29666,55.34738.07246.88583-.47889.63132-1.34906.15195-10.80591-6.00701-26.9175-14.96433-38.14496-21.20574-4.9366-2.74715-8.69639-4.82897-9.90794-5.51227-.23476-.13334-.42604-.373-.44548-.61863l-.00119-.01374ZM167.3858,29.5286c.07476.16179.03098.33995-.02257.56158-3.22398,11.05547-9.05143,30.87804-12.43624,42.43367-.25201.85928-.45998,1.56844-.61495,2.09684-.23048.77659-.35629,1.47473-1.18617,1.15889-5.21092-3.23032-39.8607-25.15052-44.98821-28.51229-.45246-.55022.42563-.74026.91078-.89664,16.88581-4.77949,42.06689-12.51416,58.333-16.84675l.00436.00469ZM168.3225,131.28261c-.29372.26346-.78025.3365-1.16478.18953-1.3953-.47945-5.38043-1.85277-10.66436-3.67216-14.27159-4.93355-33.98891-11.67177-47.94377-16.52785-.55925-.31745-.44915-.81729-.00612-1.23347,4.88485-3.62141,40.05714-29.26771,44.29298-32.37017.67013-.42714,1.11997-.23975,1.3621.70379,3.20631,11.64646,8.02738,29.15638,11.34085,41.19193,1.49747,5.45394,2.65884,9.62755,3.01576,10.97636.06358.2741-.02685.55383-.22184.73209l-.01081.00995ZM169.54162,131.38315c-.20206-.02395-.2962-.25874-.37456-.47972-1.13874-4.14558-4.25168-15.32343-5.96538-21.56827-2.70712-9.78496-5.92581-21.45238-8.5205-30.84384-.23679-.75087.43418-1.44385,1.2339-1.42152.88324.0618,2.88818.27711,5.63574.53781,12.26656,1.18629,28.0603,2.73571,39.72344,3.86531,1.26274.12624,2.16876.20328,2.62303.26312.52045.06888.44292.1715.21896.51846-2.68321,3.58817-26.12902,37.85514-34.56713,49.12814l-.0075.00052ZM203.81911,80.98788c-.12408.16101-.41046.20461-.65618.18773-1.29929-.11506-4.83387-.46877-9.42976-.91285-11.58936-1.12716-25.81138-2.51274-37.3037-3.63068-.91497-.01374-1.9863-.63044-1.81376-1.58829.24637-.93862.92872-3.18034,1.80985-6.21023,3.34904-11.43167,7.61105-25.91983,10.80572-36.81993.41725-1.31612.53365-2.68644,1.44789-1.47313,3.02835,4.2916,26.61703,37.83068,34.97226,49.71392.14741.21634.27738.53305.17259.72559l-.00492.00788ZM107.27322,47.42322c12.34274,7.42487,32.25288,20.4858,44.94444,28.41499.77587.50802.71239,1.11299.13849,1.59275-4.30998,3.14476-39.19982,28.69139-44.12234,32.24529-.50453.29386-.96518.34192-1.08283-.28622-.04724-14.42074.00088-34.74604-.01582-49.5386.00209-6.0125-.00409-10.52134.00317-11.89437.00417-.1353.01191-.24511.02618-.32931.01877-.10991.04881-.17625.10318-.20208l.00552-.00245ZM106.38445,47.56082c.17498.08948.19719.3439.20896.57491-.01628,4.71566.01925,18.06099.00359,25.30493.00295,10.59473.00763,25.98593-.0085,35.58319-.0946.65914-1.00891.86969-1.6893.73576-.48833-.16393-.85518-.39549-1.35842-.6244-13.27171-6.44215-31.65128-15.36474-44.66424-21.68136-1.3718-.66805-2.38894-1.15531-2.94594-1.43342-.69292-.37906-.7347-.66372-.23996-1.09074,4.16322-2.92688,38.54954-28.90994,50.68703-37.37075l.00677.00187ZM55.08684,86.43013c.17897-.0947.46245-.0401.68272.06116,11.77075,5.68257,44.19728,21.34796,48.85273,23.60068.53736.27969,1.05021.8684.89892,1.48525-.07623.29848-.42126.48952-.91022.86489-.45464.33852-.88907.66588-1.35509,1.0133-9.95974,7.44445-24.08277,18.0109-34.27014,25.62644-.34099.24947-.59913.46529-.92715.67629-.7554.41513-1.66818.37582-1.83588-.41049-.18596-.84571-.56103-2.58748-1.0712-4.93843-2.57826-11.88909-5.47334-25.26784-8.03221-37.07024-1.09208-5.06241-1.93558-8.88839-2.19718-10.17442-.05033-.27232-.02984-.5889.15652-.72922l.00818-.00521ZM107.75768,112.2663c.42821-.19619,1.01137-.3855,1.49406-.25207,1.31777.44812,5.17704,1.77788,10.32871,3.54638,13.92294,4.78511,34.07354,11.7041,47.61486,16.35771.70461.26507,1.39573.69686.81681,1.24168-4.3415,3.16002-44.47839,32.27997-48.91192,35.49148-.61931.40452-1.30736.28881-1.45044-.66909-2.27393-12.22421-5.68665-30.56313-8.04512-43.24125-1.10991-5.98729-1.9762-10.5782-2.21421-11.93405-.03614-.26634.12191-.39819.35246-.53285l.01479-.00795ZM119.04571,169.57105c11.2978-8.95671,44.73596-32.61587,49.08732-36.02836,1.37082-.88737,1.05092,1.50926,1.20783,2.53271.7279,10.97708,1.7456,25.92938,2.5151,37.49068.12993,1.93645.23331,3.47733.29837,4.4472.2212,1.18786-.42719,1.73675-1.55009,1.67697-9.03871-1.71443-20.8589-3.97173-30.35768-5.78323-6.00946-1.13663-16.61757-3.16881-20.64287-3.94337-.26028-.0599-.5126-.17022-.55747-.38427l-.00051-.00832ZM173.09531,179.19749c-.36624-.12776-.40935-.65091-.4603-1.02738-.73575-10.85337-1.92528-28.63674-2.6834-39.89249-.11856-1.82099-.22296-3.20109-.26105-3.97816-.03128-.68947.40792-1.12678,1.08718-1.12734,6.65529,1.30831,38.77383,10.2538,43.68357,11.40486.18656.05216.31894.09303.39878.13394.12581.06437.12145.13017.00811.24988-9.68067,8.07061-23.19449,19.19509-33.13844,27.44544-3.81135,3.14978-6.71911,5.56976-7.82638,6.47027-.23781.18572-.55121.36359-.79768.32335l-.01039-.00238ZM214.89745,143.74085c-.26742.27653-.75207.31427-1.13812.2064-8.06416-2.13356-21.08426-5.54513-30.30669-7.98343-4.54998-1.1988-8.4338-2.22212-10.6069-2.79469-.97182-.25951-2.95568-.59468-2.49823-1.84502,3.03776-4.32885,30.52456-43.6646,34.13673-48.73572.38804-.62465.41727.93214.61253,1.73817,2.30726,13.46529,5.60193,32.68828,7.96036,46.45136,1.05322,6.1716,1.86422,10.8265,2.08368,12.19803.0292.27351-.05376.56585-.23344.75457l-.00992.01032ZM169.51356,7.73313c.18102-.18161.47831.08295.711.20119,4.64033,2.94345,28.35863,17.14155,33.11561,20.37063,2.13342,2.63727,5.35125,7.13591,7.43364,9.94326.19643.29702.51368.72416-.0522.59121-5.5228-1.28454-35.90829-8.47568-41.19964-9.72913-.6315-.19246-1.0385-.48114-1.19507-1.19381-.12663-.57019-.14922-1.43813-.05244-2.73679.22863-3.63742.57784-8.89835.83534-12.95825.11429-1.72612.19187-3.08902.2537-3.80759.02068-.23956.03933-.48221.14337-.67174l.00669-.00897ZM134.15719,1.22345c5.22885.66218,27.03907,4.75632,33.34181,5.78259.6234.14181,1.18849.08608,1.42353.71284.15699.43131.14503,1.27087.04683,2.55682-.2447,3.86172-.79839,12.42367-1.05539,16.28259-.18949,1.76597-.14355,2.1674-1.64973,1.34825-7.00823-3.51257-44.11172-21.5512-48.2252-23.77181-.10425-.11616,1.06201-.30591,1.43789-.37443,3.2637-.53786,10.60755-1.94708,14.65798-2.53561l.02228-.00123ZM116.82073,4.32141c.19089-.0459.39463.05229.6059.14727,1.25287.60786,5.20018,2.55123,10.3778,5.09044,11.34489,5.56817,27.41743,13.45663,38.37651,18.83543.61847.32633,1.16974.47106.7475.59524-3.83963,1.01509-52.70698,15.56538-59.20569,17.16157-.65361.0169-.25327-1.08623-.13821-1.65605.45857-2.03912,1.32316-5.8834,2.3419-10.41309,1.9335-8.63311,4.81224-21.37662,6.50709-28.92809.08674-.3012.13309-.67465.37918-.82946l.00802-.00327ZM99.85928,7.20477c3.93737-.81607,11.19918-1.99385,15.134-2.70835.42382-.03496,1.11468-.27431,1.07464.28237-1.69738,7.84256-5.48009,24.4539-7.38652,33.03239-.6182,2.7554-1.11804,4.98338-1.41062,6.28749-.19854,1.2338-.88253,2.05098-2.06727,1.70518-5.59528-2.45224-35.0953-16.09559-38.7141-17.72622-.46197-.23127-.40224-.30361.10823-.63105,9.49774-5.71228,23.74854-14.75676,33.24086-20.23554l.02077-.00626ZM65.44413,28.32466c.25433-.17716.61639.01249.90949.12311,7.15015,3.28786,19.15762,8.76884,27.37344,12.54316,4.2872,1.96463,7.95529,3.64559,9.97553,4.57138.75683.35506,2.00045.73512,1.74474,1.61821-4.86866,4.41627-47.44503,35.14249-50.4354,37.62144-.11356.07703-.17095.10291-.19084.06051-.03387-.07393.0412-.38632.14494-.96375,3.0369-15.65602,7.29408-40.51614,10.47087-55.56782l.00723-.00624ZM42.97191,58.61395c1.19386-2.1122,2.54561-3.47878,5.2054-7.18083,3.86185-5.17198,9.35924-12.52904,13.21104-17.6873,1.35345-1.81066,2.36245-3.16595,2.81761-3.76974.42471-.56679.39437-.42798.31708.01806-1.20714,5.11499-8.57167,48.31625-10.50055,54.72189-.60148-.26611-1.28182-1.18093-2.84345-2.76191-3.04536-3.19998-8.13319-8.54397-10.23799-10.75675-.50333-.5621-.88567-.8532-1.02689-1.48669-.08758-.70771.20291-1.45007.38619-2.16075.84332-2.77272,1.79907-6.36489,2.66152-8.91104l.01005-.02494ZM34.42981,122.24464c-.43792-5.19941-.02513-26.79279-.16263-32.63437.0039-.66247-.01423-1.13459.15604-1.78598,1.19419-4.25747,3.65668-12.55452,4.69094-16.14377.53831-2.03073.78118-1.31614,2.44941.3921,2.93927,3.09939,7.21166,7.63208,9.82566,10.38993.70355.70984,1.72931,1.91599,2.07365,2.48501.25111.3988.3586.70581.36479,1.06995-1.79825,5.73828-12.96219,34.05377-16.21572,42.92252-.13711.30578-.16195.57842-.3697.71768-.04158.00634-.08641-.02293-.13882-.09418-.24168-.3907-.40165-.88583-.57762-1.34147-.62552-1.78404-1.52243-4.07332-2.08754-5.94562l-.00847-.0318ZM37.58438,130.71758c-.14132-.33489.05964-.71717.17108-1.06963,2.38361-6.19932,6.52512-17.06223,9.46049-24.70769,1.64551-4.29731,3.21886-8.40612,4.45742-11.64061,1.19553-3.022,1.79706-4.89546,2.61238-6.70448,1.0222,3.85001,10.16462,46.55989,11.57456,53.17067-.04174.95438-.91922.67072-1.77465.47048-.71848-.21473-2.23825-.77708-3.31416-1.1426-5.83753-2.04052-15.78765-5.51147-21.89183-7.65241-.46204-.1963-1.00172-.31786-1.28921-.71223l-.00606-.01148ZM62.48423,174.24129c-3.12542-3.83487-14.20846-19.53356-17.53569-23.96014-.3945-.55085-.70318-.94284-.95344-1.57692-1.66987-4.74761-4.88113-13.09942-6.01725-16.96779.03491-.32407.44375-.11486.65609-.07016,2.6037.91509,7.2324,2.5217,10.57964,3.70497,3.25432,1.14152,6.60653,2.31821,9.8198,3.44544,2.48897.93907,3.81149,1.19586,5.31541,1.97954,1.11147.7724,2.00678,1.69814,2.26945,2.97517.2046,1.26836.59326,3.79352,1.09109,6.96996,1.18226,7.56211,2.53035,16.21261,3.69059,23.63634.47804,3.06405.85512,5.47174,1.03605,6.63911.04027.2703.06719.47236.04794.58986-.01544.09326-.06097.133-.15526.11339-.41015-.1595-.80011-.49874-1.20217-.79105-2.33717-1.83589-6.30356-4.74552-8.62227-6.66921l-.01999-.01849ZM73.2368,182.40158c-.23384-.26717-.25798-.69274-.33631-1.06843-1.00855-6.55359-2.73677-17.50173-3.92147-25.17371-.69603-4.4693-1.31731-8.45885-1.69952-10.91317-.12904-1.15917-.50246-2.06963-.15412-2.87371.18094-.29983.7302-.12643,1.05103.06855,5.43648,3.03591,42.12041,23.52628,47.55643,26.56325.41901.22957,1.03636.70725.44508,1.02018-9.29323,2.97931-23.69816,6.92552-33.5476,9.89126-3.92289,1.14392-7.00554,2.04926-8.36339,2.43998-.35253.07616-.72762.24311-1.02189.05296l-.00823-.00716ZM106.23492,195.02188c11.21425,3.97446,21.71202,7.69642,24.07035,8.5273.78131.26028-.07601.13565-.46381.10633-3.61126-.39547-11.3676-1.10021-15.95018-1.67013l-.02247-.00449c-6.33639-2.19162-24.07552-9.07518-28.4612-10.66589-1.45354-.52193-1.81474-.93678-3.36466-2.09475-2.00248-1.54297-4.28672-3.26778-5.95977-4.57602-.11578-.09225-.20824-.16789-.27828-.22819-.21113-.18157-.21602-.22195-.08888-.19164,2.98048,1.03951,17.25115,6.09523,30.51891,10.79748M133.54238,204.01587c-14.71682-4.89194-53.0746-18.7887-59.45424-20.96418-.14983-.0641-.20783-.1089-.15483-.16031.07849-.07612.41782-.17733,1.03374-.35871,12.33712-3.58329,28.22841-8.22348,40.94948-11.91632,1.16491-.38841,2.14542.07393,2.66097,1.25222.35521.72815.89922,1.88676,1.59683,3.34826,1.4608,3.07327,2.92773,6.15234,4.44433,9.34219,2.16606,4.54782,4.92799,10.36268,6.88836,14.47963.59924,1.25964,1.11023,2.33377,1.49722,3.14724.37358.85055.84809,1.5643.54545,1.8273l-.00732.00267ZM134.62689,204.06455c-.38119-.09546-.55251-.52241-.75587-.87127-.59782-1.22762-1.81796-3.81807-3.34593-7.02274-3.13632-6.58068-8.23541-17.32683-11.17212-23.49169-.57746-1.17871-.85814-1.8334-.74382-2.11049.06545-.27603.716-.19606,1.05941-.12552,6.29458,1.19717,47.28373,8.98621,51.71525,9.8319.35472.07915.59074.09493.13796.39217-7.84949,5.0403-20.20685,12.93706-28.52618,18.26804-3.40491,2.17921-6.09807,3.90526-7.30995,4.67891-.33318.19258-.6854.46492-1.04669.45232l-.01206-.00163ZM185.04082,190.59922c-4.64001,2.16877-23.59583,8.89562-28.84556,10.99994-.61228.22663-1.05387.4079-1.70567.49229-4.4878.50059-13.87898,1.4179-17.35106,1.7841-.36338.0403-.6925.06659-.97087.06608-.11641-.00589-.15368-.02977-.12584-.07619,4.58264-2.94566,30.67165-19.75258,35.83431-22.75316,1.33359-.39668,2.0469-.19352,3.78553.26292,3.88925,1.2808,10.65304,3.4379,13.85343,4.54305.89604.31835.58365.76697.01652,1.25693-1.16496.97404-3.06606,2.42519-4.46126,3.40461l-.02952.01942ZM190.7857,185.85863c-.48473.09312-.96603-.07545-1.44199-.21555-.95866-.30493-2.52334-.82558-4.31697-1.41178-3.28271-1.08244-7.2769-2.37647-9.29664-3.05877-.85089-.33357-2.7832-.9539-1.6186-1.8621,4.65175-3.7639,37.77341-31.38052,40.84866-33.67097.02778.07483-.11945.42976-.39129,1.11877-2.88459,7.26912-8.11213,20.44706-10.94281,27.58065-.44297,1.06557-.63064,1.7172-1.0439,2.50834-.40083.62833-1.08685,1.04917-1.6894,1.54083-2.06552,1.5841-6.55782,5.03324-8.55833,6.56191-.49052.35694-.96598.76396-1.52205.90301l-.02667.00566ZM224.80507,148.77201c-1.16432,2.05788-2.35288,3.29225-4.77855,6.73692-2.00287,2.74172-4.40179,6.02586-6.62232,9.06577-2.84895,3.89932-5.39794,7.39164-6.4532,8.83307-.3928.56799-.939,1.08739-1.53107,1.56238-.8635.69753-1.9484,1.51526-2.04939,1.32082,1.76476-5.11108,10.07038-25.28262,11.9396-30.18818.21995-.49338.44252-.95545.83837-1.28368.36011-.35165,1.77541-.9421,2.65573-1.28835,2.04164-.77193,5.45848-2.04201,7.25709-2.70444,1.58147-.59445,1.76861-.36574,1.20752,1.22692-.72354,1.99651-1.62742,4.65612-2.45096,6.69026l-.01282.0285ZM234.38373,121.69641c-.66568,2.2667-1.47872,4.16296-2.73916,7.78386-1.29873,3.59982-2.68658,7.48882-3.29949,9.15492-.31458,1.12012-1.12147,1.57345-2.19832,1.94347-2.39456.88932-6.68004,2.5287-9.16038,3.41654-.56277.18842-.75952.20546-.77028.05087,1.73021-5.04451,16.67297-45.1484,18.08361-49.07507.06454-.16256.1041-.23953.12781-.20201.10667,2.76257.00408,6.0322.03866,10.80742-.06307,5.26841.12939,11.59746-.07806,16.09815l-.0044.02188ZM234.4046,92.65782c.06184.29126-.05124.62971-.15361.94165-.52305,1.43644-2.03987,5.52032-3.99384,10.81123-3.2979,8.9225-8.00305,21.64313-11.32741,30.6364-1.35713,3.64128-2.18964,5.98565-3.11687,8.39175-.7804-2.45881-9.15627-53.54591-10.45156-60.39009-.05031-.34677-.19829-.95807.25113-.90026.41012.01046,1.4432.40201,3.12688.99168,5.53937,1.95238,15.52174,5.45724,22.25383,7.82812,1.40797.50907,2.41741.7998,2.92021,1.12741.2178.13253.42372.30822.48773.54819l.00351.01393ZM234.37864,91.17226c-.28912.85612-.8895.35488-2.06324-.00635-3.44048-1.21647-6.342-2.24584-10.22469-3.61919-4.5121-1.59709-9.07642-3.21273-13.52076-4.78584-.69044-.2498-1.17173-.40144-1.74656-.63248-1.23982-.52557-1.53656-.77638-1.31161-1.86979,2.7793-9.1779,5.93812-19.29535,8.71963-28.3865.89645-2.88585,1.54134-5.06701,1.81682-5.85551.06507-.16038.12693-.25414.20913-.26734.38618.10382.62007.59587.91554.9355,1.43136,1.92603,5.17813,7.00425,7.03772,9.51749.93311,1.31692,1.35167,1.6372,1.72524,2.8878,1.15886,4.02509,6.96336,23.90242,8.35748,28.8131.22583.96303.31626,2.39041.09357,3.24279l-.00826.02631Z"/>
        <g>
          <path class="cls-2" d="M13.78373,142.50242c-1.89825,0-3.76708-.04227-5.55463-.12588-6.67984-.39866-8.09606-1.30201-8.21984-2.63088-.13405-1.43326.9977-3.14912,16.08282-6.9302,1.75999-.42108,4.17017-.92017,5.71484-.92017.5577,0,.97248.06212,1.30458.19524.08828.03527.17049.08361.24429.14293.3279.26437.48811.6642.42879,1.0694-.14013.9566-1.31159,1.586-4.76011,2.99147-.3293.13405-.60815.24756-.79826.33093-1.25787.49488-1.98606.95753-2.3163,1.24176.20225.08314.54556.19034,1.11261.29076.99583.17563,2.37795.26484,4.10805.26484.32463,0,.64505-.00327.95753-.00841,1.994-.03456,4.18325-.1448,6.88863-.34728,10.0158-.75318,22.70147-2.61477,30.2814-3.72714l.48063-.05862c.88186-.10836,2.08929-.2569,2.91417-.2569.47877,0,.79078.04718,1.04348.15764.1093.04788.20879.1156.29333.20015.21673.21673.33397.56424.28586.86692-.05979.3732-.30594.66187-.7324.85851-.43906.1852-.87159.30431-1.43677.44047-.77257.18473-1.8081.39446-2.80954.59741l-.14059.02849c-2.01269.40427-4.0889.80012-6.17258,1.17707-10.98547,1.93328-25.36435,4.15149-39.2,4.15149Z"/>
          <path class="cls-2" d="M63.31579,135.06069c.04612.04303-.01062.10333-.17356.17823-.35725.15022-.74933.25598-1.25987.37899-.7901.189-1.86281.40504-2.91607.61844-2.0066.4032-4.06132.79497-6.15251,1.17307-13.58612,2.39111-29.71042,4.70559-44.53971,4.01146-15.67747-.93566-2.90171-4.93233,8.05066-7.67754,1.87738-.44906,5.37384-1.18869,6.43064-.76483.75358.60687-3.73593,2.25456-4.91293,2.77047-2.46242.9681-4.96888,2.64685-.98642,3.35077,1.48677.26238,3.49822.30064,5.24842.27075,2.30747-.03978,4.65407-.17826,6.94377-.34963,9.69756-.72925,21.6302-2.45514,30.3485-3.73443,1.08332-.12739,3.40033-.45363,3.91655-.22801l.00252.00225Z"/>
          <path class="cls-2" d="M249.5293,79.35732c-.30688,0-.59507-.02592-.85664-.0766-.02896-.00584-.05792-.01284-.08641-.02102-.02756-.00817-.0682-.02125-.09435-.03176-.76603-.30127-.88467-.90008-.90008-1.14343-.06446-1.01499.93465-1.89965,4.11225-3.64049l.23635-.13008c.68896-.37881,1.55214-.88186,2.15655-1.43537.47316-.42225.57639-.71301.55397-.78891-.0411-.13732-.50212-.58012-2.0295-.80783-.81927-.13662-1.98466-.20762-3.3864-.20762-.57172,0-1.14063.01191-1.67405.03176l-.35732.01004c-.52875.01495-1.11074.03153-1.70254.03153-2.10938,0-3.44665-.22-4.33599-.71348-.05278-.02943-.10276-.06399-.14947-.10276-.60535-.50656-.53482-1.09369-.47643-1.32256.07053-.27488.28399-1.11144,2.68997-1.58997.01775-.0035.03597-.00654.05372-.00911,3.34623-.46966,6.7742-.70787,10.18955-.70787,1.81044,0,3.61714.0682,5.36966.20272,5.60367.54393,8.11614,1.53766,8.41975,3.32404.27512,1.61823-1.41575,3.17924-5.48269,5.06115-2.38216,1.11845-5.31454,2.20723-7.35479,2.92328-1.41341.48437-3.34016,1.14437-4.8951,1.14437Z"/>
          <path class="cls-2" d="M248.84183,78.33764c-1.41258-.55524,2.64041-2.67398,3.56358-3.18782.83799-.46071,1.69663-.9789,2.33774-1.5658,1.6682-1.48821.88822-2.82081-1.98074-3.24833-1.39225-.23258-3.49873-.25015-5.23697-.18567-1.84848.04939-4.5811.17703-5.89592-.55245-.73039-.61078,1.06563-1.09724,1.78631-1.24058,5.05623-.70975,10.33532-.88372,15.35311-.49865,8.75421.85007,10.28627,3.01003,2.60834,6.5632-2.07964.97647-4.76591,2.00999-7.26959,2.88866-1.66754.57131-3.84621,1.30485-5.25255,1.03148l-.01332-.00403Z"/>
          <path class="cls-2" d="M250.69095,176.18353c-1.19014,0-2.71005-.11747-4.51675-.34868-15.2159-2.18434-30.97596-8.37631-43.00771-13.52691-1.96411-.85337-3.91047-1.72496-5.7891-2.59258l-.10883-.05068c-.94539-.4386-1.92347-.89214-2.64559-1.26394-.52875-.27325-.92951-.49955-1.29804-.78588-.15367-.12822-.53715-.45004-.52174-.98252.00887-.31038.15741-.59554.40777-.78191.09155-.06866.19805-.12214.30781-.15414.13546-.03924.28165-.05839.44654-.05839.75201,0,2.0281.43463,3.4957.9594l.42926.15274c7.20625,2.80254,19.21745,7.47436,28.85724,10.32407,2.59982.76743,4.7176,1.32653,6.66396,1.75953,2.07668.46125,3.73018.69526,4.91471.69526l.07707-.00047c.8431-.00771,1.21256-.12915,1.35269-.19594-.1093-.31832-.6955-1.14063-2.11358-2.18481-.19945-.15974-.44654-.34705-.73894-.56845-2.82449-2.14207-3.99875-3.20377-3.95718-4.2337.01635-.4024.22233-.75879.56518-.97762.08594-.05512.18076-.09599.27979-.12121.17049-.04297.35265-.06399.55724-.06399,1.17707,0,3.2785.77397,6.24545,2.30065,13.1565,6.97878,14.60355,9.40835,14.20839,10.99481-.38021,1.52832-2.52695,1.70534-4.10992,1.70534h-.0014Z"/>
          <path class="cls-2" d="M193.78264,156.61716c-.05504.04117-.0132.12277.12945.24233.31595.2458.67621.44654,1.14867.69075.73149.37634,1.73388.83993,2.71782,1.29661,1.87528.8661,3.80036,1.72833,5.76432,2.58179,12.77441,5.46843,28.0549,11.34728,42.75293,13.45741,15.58481,1.99511,3.97167-5.18879-6.13958-10.55202-1.73811-.89422-4.99729-2.44667-6.13026-2.1598-.87748.56032,3.14792,3.36886,4.18407,4.2032,2.19316,1.61561,4.26716,4.06984.20174,4.10755-1.51765.0136-3.49852-.3379-5.20769-.71753-2.25329-.50094-4.52239-1.12485-6.7282-1.77597-9.34146-2.7617-20.64665-7.12757-28.90235-10.33876-1.03305-.36215-3.23026-1.19951-3.78792-1.03769l-.00298.00213Z"/>
          <path class="cls-2" d="M26.38439,68.76911c-.7749,0-1.82258-.5173-2.23689-.73964-.01588-.00864-.03129-.01752-.04671-.02709-4.40979-2.70024-8.67432-5.98528-12.33256-9.50013-3.761-3.7631-5.14312-6.13288-4.4948-7.6974.38628-.93231,1.36624-1.405,2.91324-1.405,1.16118,0,2.68063.24943,4.64427.76229,2.55077.65112,5.50652,1.67452,7.53602,2.41835,1.70394.63921,4.02865,1.51103,5.11883,2.83196.02289.02732.04391.05605.06352.08571.01214.01892.03129.04998.04251.06983.36386.65463.1434,1.16702.03176,1.35689-.40123.68218-1.2873.76112-1.9188.76112-1.17286,0-2.77217-.30337-3.63162-.46639l-.26718-.05021c-.66981-.12611-1.53112-.26998-2.29481-.26998-.09575,0-.18964.00234-.28259.00701-.63337.02522-.89821.18403-.92857.25713-.05558.13195.01868.76673,1.05329,1.91343.75668.86949,2.13553,2.08695,3.79417,3.35277l.27979.2172c1.61146,1.25157,3.61667,2.80884,4.23043,4.36705.02242.05628.03924.11444.05045.17399.1079.57592-.11397.94889-.25596,1.11985-.17469.21042-.50165.46125-1.06777.46125Z"/>
          <path class="cls-2" d="M26.75586,56.03282c.73753,1.32654-3.73806.38584-4.77734.19568-.93976-.17702-1.932-.3228-2.79998-.27726-2.2338.08845-2.47875,1.61297-.53576,3.76669.92693,1.06455,2.5419,2.41711,3.92476,3.47226,1.45837,1.13688,3.649,2.77536,4.2003,4.17427.1756.93578-1.5201.16966-2.16756-.1778-4.35441-2.66613-8.5403-5.88754-12.16911-9.3744-6.21763-6.22092-6.02734-8.86222,2.1584-6.7246,2.22612.56814,4.95681,1.47784,7.4481,2.39103,1.65044.61895,3.7986,1.43757,4.71048,2.54256l.00772.01158Z"/>
        </g>
      </g>
      <text class="cls-1" transform="translate(52.40154 257.90362)"><tspan x="0" y="0">VIS</tspan><tspan class="cls-6" x="70.86719" y="0">U</tspan><tspan x="103.81934" y="0">AL</tspan><tspan x="-42.66602" y="33.84863">CRE</tspan><tspan class="cls-5" x="54.81934" y="33.84863">A</tspan><tspan class="cls-4" x="82.76465" y="33.84863">T</tspan><tspan x="108.78418" y="33.84863">ORS</tspan></text>
      <g>
        <path class="cls-3" d="M229.17329,125.50185c.03169-.45319.04242-.90991.04973-1.36408.21014-.20429.35641-.4833.37835-.7723.13749-1.07666.49878-3.18926.4627-3.5553-.50024,1.10798-1.01315,2.61662-1.47,3.74484-.02974.07545-.05704.14542-.0824.21215-.0312-.07015-.06582-.14657-.11165-.228-.3608-.83483-.92783-1.87937-1.59579-3.33175-2.01363-4.20638-5.00384-10.44412-5.48897-11.46367-.03169-.16291.00683-.35653.07313-.56265.08045.57697.18771.85567.49487.22769.29107-.72464,1.03071-1.80776,1.06825-2.60797l-.0234-.07472c-.28961-.42064-1.01852-.55911-1.43148-.67107-.4076-.06296-.42174.48537-.35202,1.11243-.18527-.03431-.35153-.07167-.43295-.17016-.22428-3.85917.3291-25.79066.21258-32.98805.02779-.06338.06241-.05424.15651-.05863.08337-.00195.23939.01865.41882.044-.11214.42345-.16626.83556-.05119,1.15954l.03852.06741c.39395.51243,1.47634.83903,2.1048.93088.41101-.00652.22867-.44405.14822-.71537-.28376-.77364-.84153-2.19549-1.13748-2.89746-.15553-.37689-.37055-.67174-.57727-.11714-.06436-.14011-.12872-.27925-.19551-.42077.39883-.0131.21989-.4449.14091-.71416-.28425-.77364-.84202-2.19543-1.13797-2.89733-.15602-.37914-.3725-.67686-.58117-.10934-.18235.63127-.64066,1.58506-.63139,2.32037-2.75619-3.02355-13.56737-15.40237-17.95835-20.2566-.27645-.16864-.29936-.37634-.26767-.60647.0707.08971.14188.1757.21306.25512.13652.13749.25987.27035.43198.21916.30326-.13627.85421-1.64674.59726-2.22797-.27693-.44435-.87225-.47616-1.36956-.60659-.43344-.06637-1.1682-.31094-1.47195-.16522l-.02292.02639c-.03267.23488.22769.60665.50024.96635-.08045-.02779-.14578-.0568-.17601-.09075-.99658-1.62925-11.28315-19.06731-12.91355-21.83977.20624.18978.47001.31387.76888.31417.62895.01731,1.94635.16961,2.45536-.00664-.26572-.38469-1.22183-.69039-1.7128-.99974-.49975-.18661-1.40028-.88809-1.8186-.72732-.26767-.15309-.53242-.31509-.78887-.47805.14822-.0128.28327-.03187.38176-.066-.26572-.38475-1.22134-.69045-1.71232-.99981-.53242-.19862-1.52509-.99328-1.89954-.69673l-.02487.04065c-.05314.18113-.05753.37433-.02243.56259-7.46944-3.25764-24.01777-10.05876-28.93434-12.4472.07167-.33788-.04876-.80289-.35202-.87426-.77035-.14785-2.02192-.23568-2.73473-.21739l-.0039.01329c.0078.01012.02633.0234.03998.03529-.18674-.0234-.37396-.04589-.56118-.06832-.05412-.06271-.11604-.11421-.19502-.13274-.76986-.14779-2.02192-.23561-2.73473-.21733l-.0039.01329c.12482.15712.96147.53278,1.30325.72951.47342.20356.92734.57484,1.41832.67125-2.097,1.28223-11.11153,6.74651-16.90863,10.26975-2.10383,1.30094-3.49679,2.11096-4.51921,2.74205-.02535-.00311-.05217-.00981-.07655-.0106l-.08679.0234c-.08289.04949-.14773.12329-.1999.21111-.12384.0802-.19064.093-.63871-.10483-.09069-.03645-.17406-.07131-.25402-.10501.26718-.17412.38225-.37134.07362-.62091-.35494-.24665-.99804-.72397-1.4856-.73951l-.08679.02346c-.3291.19667-.3725.77339-.49536,1.11213-.06631.27169-.1765.58392-.10336.80478.04681.17229.30765.14962.66845.03736-.02438.08545-.04924.17729-.07411.27815-.03949.07338-.07703.09465-.12677.10275-1.54411.10214-19.95638,1.2537-25.48435,1.60225-.37737.01975-.69331.04327-.94099.06046.08679-.10434.14676-.25085.18722-.41187.09556-.56271.56606-1.71744-.05217-1.53234-.54217.18375-1.22037.54266-1.75035.77364-.1292.06064-.23403.11299-.32325.16242.38225-2.72254,2.31933-15.72075,2.50412-17.11975.0039-.14072-.03267-.18162-.07167-.11726-.08874.17065-.19941,1.2506-.44319,2.80628-.64358,4.37891-1.83616,12.50169-2.13454,14.52543-.05071.04059-.08727.07978-.08922.11762l.0039.03632c.01511.01731.03705.03382.05509.05083-.00439.02828-.00878.0596-.01219.08343-.02779.20922-.24183.34404-.49536.45873.02292-.26804-.03949-.44173-.30911-.36116-.54168.18375-1.22037.54266-1.74986.77364-.33398.15639-.55192.26737-.55826.37481l.00439.03626c.29741.34166,1.13407.62816,1.59433.8411-.06387.06034-.13018.12335-.19941.1921-3.14575,2.99533-13.46938,12.84091-18.56878,17.70007-.79765.78168-1.36907,1.3002-1.78643,1.69842-.16772.00457-.31058.08191-.38712.27096-.01414.03718-.0234.08228-.03608.1214-.08289.03742-.21599.01719-.62018-.1016-.01706-.00445-.0351-.0103-.05266-.01518.03413-.03078.07167-.06155.10239-.09221.11653-.12853.18771-.23488.11409-.37975-.14383-.25463-.99121-.63212-1.4856-.78979-.25792-.07661-.49634-.02444-.60458.24335-.2116.55667-.28766,1.34823-.4076,1.92453-.0039.02572-.00683.0462-.01073.07064-4.28713,1.35-27.96604,8.7396-29.09475,9.12764,1.4817-.0738,24.5926-7.78398,29.07037-8.96778-.02828.2155-.03023.36128.01999.41467l.02535.01883c.14578.00481.36665-.12981.60116-.29979-.01853.14426-.04583.326-.07021.51596-.25743-.07582-.49487-.02352-.60311.24366-.21111.55667-.28717,1.34823-.40711,1.92453-.04437.26621-.06777.4627-.04534.57154-6.41582,8.89861-25.12112,35.63539-28.92166,40.60461-.05704-.01633-.11165-.02011-.1609-.00676-.04144.10714-.07021.21989-.09361.33495-.13652.1729-.24476.3054-.31594.38304-.09654-.03858-.33252-.24073-.56167-.4037.10434-.29583.19551-.58288.26182-.84366.09215-.53955-.59141-1.42033-.97659-1.31623-.27157.70526-.1097,1.60627-.20429,2.38686,0,.57331-.12677,1.71634-.03949,2.0335l.01268-.00317c.12287-.26036.26231-.5674.40321-.89212.00585.36774.0156.74707.02779,1.10061-.0746-.02999-.14676-.04687-.20965-.0298-.27157.7052-.1097,1.60621-.20429,2.3868,0,.57331-.12677,1.71628-.03949,2.03344l.01268-.00305c.39736-.84171.9644-2.14411,1.20769-3.10101.02535-.1467-.01024-.31826-.0785-.48878.18089-.28943.37786-.59129.5763-.70593-.0312.58392-.08922,1.30636-.02243,1.54856l.01268-.00305c.11604-.24585.24671-.53315.37932-.83751,2.3832,5.14743,6.41924,14.09492,8.54452,18.72236-.02633.15504-.02097.28888.03803.39614l.0312.05058c.0273.03315.06095.06411.09556.09447-.0312.23909-.16333.51036-.28669.78205-.10044-.39163-.21209-.68289-.34129-.60311-.30521.40004-.50755,1.11225-.71623,1.59164-.1253.33886-.17796.60226-.07313.79168l.0312.05058c.26085.31777.89809.50853,1.30325.48439.39883-.09977.16138-.6395.11994-.93722-.0078-.0245-.01609-.05327-.02438-.08167.17308.05625.34714.09556.44612.147.05022.05351.08435.12299.11019.20977-.0824.26237-.10824.47537-.02097.63359l.0312.05058c.02584.03163.05802.06095.09117.08996.01073.1211.02292.25073.039.39943.60604,6.09208,3.234,30.1881,3.31542,31.99994-.039.02992-.1765.00536-.31789-.01006-.0234-.09532-.04632-.18198-.06631-.24323-.17162-.52492-.85567-.81795-1.34323-.8561l-.02828.01353c-.05022.25183.50219.83257.68892,1.16881.25841.36464.51877.78473.78254,1.10579.03364.02773.06728.07569.11653.06308.01609-.05954.01804-.15706.01121-.27236.098.14334.20234.30131.30814.45825-.03169-.00433-.06436-.01067-.09507-.0131l-.02828.01365c-.05022.25183.50219.83251.68892,1.16875.25841.36464.51877.78479.78205,1.10585.03364.02767.06777.07557.11653.06302.07021-.2556-.11068-1.17161-.21599-1.49511-.06485-.19868-.20331-.36378-.37689-.49475.00244-.15468-.01609-.27949.07216-.33569.16675.07271.71818.43661,1.55532.94294,4.94144,3.03982,19.76526,12.14205,23.0446,14.16519.06533.15742.14773.29345.25061.38261.11799.07563.24817.10257.38322.10208.06241.19344.05071.40681.05509.7247-.17552-.10135-.35007-.19338-.52169-.25146-.1292-.0373-.24037-.04467-.30911.06942-.12287.30741-.03413,1.45738.39249,1.82622.31399.20155.71477.05741,1.06581-.02999.30131-.10038.85762-.2169.9917-.43113l.01073-.03992c-.03218-.18405-.32472-.37628-.62895-.55265.25304-.12957.50706-.27486.6977-.3146.05217.02444.11604.05656.18576.09251.05509.10531.11653.20063.1921.26596.14237.0913.30229.10982.46757.09666.30083.17223.66991.39005,1.13066.67003,5.82929,3.41238,19.59559,11.5613,23.98461,14.17683-.01901.03352-.06533.06643-.12433.09965-.58117-.88182-1.87809-.42589-2.62844.01536l-.01804.04577c-.00975.09154.16528.18686.46172.30771.67235.24287,1.53728.63718,2.25546.80058.17796.03395.25841-.0359.27645-.16388.04193.01828.0863.03535.12579.05522.31887.14054.50268.2233.21453.54205-1.56654,2.05885-6.42411,8.55098-7.14473,9.48173-.03998.03852-.08727.06472-.13359.09191-.57386-.20703-1.2111-.4449-1.5758-.50792l.01121.01719c.15309.12817.50658.39334.86835.61091h-.32569c.11701.00768.23403.01274.34909.01426.13798.08191.27303.15322.40175.20941-.02828.03937-.04876.07362-.03852.08441.00634.02151.11019.00445.21989-.01578.04973.01536.09995.03096.14286.03693.08142.01578.1687.02249.25158.03523.02097.03035.04583.06594.07947.10854.06046.08343.13067.17936.19941.27431-.31155-.10702-.59629-.19539-.79765-.23025l.01073.01725c.11555.09635.34568.27115.60604.44453-.31935-.14645-.71477-.32624-1.078-.49286.06631.00561.13505.01201.1999.0178.38079.02718-.09995-.11318-.84397-.37286-.10531-.03157-.22623-.07222-.35299-.11592-.00878-.005-.01999-.01109-.02243-.01359-.00439.00061-.00878.00067-.01268.00134-.64261-.2233-1.4817-.55466-1.92246-.63084l.01073.01719c.26865.2247,1.1526.8759,1.61822.94014.20234.03943.4154.06436.62847.08807.69234.33026,1.76595.82666,2.20475,1.01864.21989.09843.24963.03626.19307-.09465.14383.06789.27889.11787.38956.1331.48854.0952,1.02583.13012,1.52558.17461.38079.02712-.09995-.11318-.84397-.37286-.38322-.115-.94051-.32953-1.44221-.50408-.10239-.14212-.19161-.26828-.21648-.33331-.01268-.0192-.02048-.0398-.02438-.05906.38664.05375.78449.0902,1.16576.12408.33642.02401-.00195-.08337-.59921-.28821,4.18035-.77851,26.88902-4.6247,35.92012-6.24694.16187-.02474.30375-.04985.43149-.07338-.04437.26152.16626.66619.29497.93746.19161.39407.51194.83263.99316.64346.39151-.13822.79619-.43381,1.13456-.66418.27937-.20039.44173-.36043.3842-.47629-.1058-.10592-.24524-.17083-.3998-.21703.12189-.09556.24622-.19307.36567-.27364.16626.14261.37055.21191.61725.11488.18771-.06625.37786-.16943.56265-.28333,4.54017.05004,24.91781.2528,26.20399.28486.04437.00195,0,.04382-.07216.1008-.50121.09245-.99804.58081-1.39638.80253l-.00195.01036c.44173-.12969,1.25986-.36555,1.79179-.57374.19307-.03322.40078-.06789.60409-.10702-.05656.03754-.11214.07411-.1648.10355l-.00244.0103c.49439-.14493,1.4622-.4232,1.96975-.64638.05071-.04699-.02974-.09885-.15261-.14115-.28522-.10641-.57727-.01341-.85957.14279-.05363-.05839-.11214-.11385-.12238-.16266,5.01067-3.8557,15.67754-11.90893,20.35569-15.45607.82885-.52035,1.80593-1.65149,1.42563-.74524-.0039.00896-.00536.01487-.00926.02365-.09995.0852-.20039.169-.30229.24591-.32813.34135-1.16576.77004-1.14382,1.15046l.02584.04083c.39444.31295,1.30715.5198,1.57824-.08733.09556-.2074.23403-.522.36421-.84476.37347-.3185.8308-.73817,1.25255-1.03485.44563.21562,1.11554.27828,1.34177-.22842.21696-.47086.6587-1.49206.70696-1.91514-.00731-.02986-.0273-.04053-.06192-.03279-.3764.18802-.73329.56271-1.10481.84397-.06533.06789-.15358.13993-.24866.21367-.10921-.06326-.25012-.13481-.43149-.22269-.0117-.02328.00244-.04376.02779-.06759,1.51388-1.27126,20.64238-17.67234,22.16552-18.86382.03852.04266-.00926.27651-.05558.51675-.49878.53662-.75767,1.60048-.98975,2.28636-.00049.02718.01024.03315.03218.01828.13262-.10093,1.1565-1.55203,1.63333-2.21719.21355-.29376.15992-.4037.0156-.41431.06192-.09123.12482-.18308.18917-.27389-.01853.05851-.03754.11878-.05607.17308-.00049.02712.01024.03309.03218.01816.0746-.05668.431-.54058.81374-1.07154.01511-.01109.02974-.02596.04486-.03632,1.27644-.34964,5.67912-1.50041,6.72396-1.79063.40955-.15242.09069-.15785-.76255.0849-1.42758.37262-4.20619,1.09787-5.36366,1.39997-.26231.081-.37152.08417-.42905.04437.2272-.31716.44709-.62621.60604-.84787.45294-.62316-.27937-.43716-.58507-.17229l-.06972.05912c-.137.14078-.25451.3227-.35982.52486-.04876-.01121-.08386-.0245-.07606-.06485.94441-1.60231,6.77857-16.47824,9.27781-21.09264.00731.05534.03218.09239.08484.10495l.03949.00878c.54802.01158,1.07654-.52328,1.11944-1.0947.13749-1.0766.49926-3.18926.46318-3.5553-.17698.39145-.35494.83385-.53193,1.29082ZM228.29276,127.80997c-.07947.02535-.07362.01816-.04534-.04217.07655-.17528.33544-.76608.49975-1.14223-.15553.41418-.30765.81551-.45441,1.18441ZM228.21329,125.97552c.17357-.57264.34861-1.13815.48951-1.49803.02877.04461.19697.39943.26426.54778l.00829.03846c.00293.04333-.03413.5017-.04876.72982-.01024.20191-.02535.1598-.12628.40943-.20965.43527-.51535,1.27887-.7567,1.68891-.01706.00957-.06338.02675-.1175.04559.08289-.58916.19893-1.33433.28717-1.96195ZM229.06067,125.59473l.02145-.30808.05899.1228-.08045.18527ZM228.99631,124.7437c-.00439.088.00049.08447-.0746-.07027-.04096-.08447-.0941-.19435-.13018-.26895.0824-.02834.16187-.06546.23695-.11397-.01365.19356-.02535.36201-.03218.45319ZM220.96666,106.25561c.05314.00774.11994.01767.19161.0284.05899.47245.15309.97013.15651,1.27485.01073.09556.02097.18832.03169.27852-.06046.14468-.11458.27523-.15602.37445-.08045.15578-.05217.24061-.1175.08679-.06582-.13804-.14529-.30473-.21111-.44307-.04339-.10544-.19893-.38121-.19454-.44039.00195-.2834.00536-.89967.00731-1.11548-.01853-.1431.01999-.06759.29205-.04406ZM221.05149,108.55056c-.05851.13761-.15212.36336-.25451.60982-.21745-.12756-.47879-.21343-.71818-.27852-.05851-.4666-.10678-.91247-.10093-1.1281.15261-.07057.5212-.20368.57971-.22013l.02682.00451c-.00634-.01006.49146.94471.46708,1.01242ZM219.79017,107.53509c-.00049.11957-.0195.17644-.05851.20874-.03657.01341-.09849.03651-.17211.06381.06046-.1442.13652-.30131.22038-.46684.00585.06728.00975.13292.01024.19429ZM220.35574,106.16486c.13944.01822.21258.0192.19697.0604-.00146.19832-.00731,1.18965-.0078,1.18977l-.00975.00993c-.01511.00567-.29254.10952-.46367.17363-.14188.05229-.1292.0604-.13798-.02767-.01316-.11336-.03169-.2667-.05119-.43088.16236-.31393.33544-.64718.47342-.97518ZM220.40206,106.04851c.05899-.14944.1097-.29656.14481-.43862-.01609.20996-.03608.36232-.06143.44453-.03023-.00396-.05558-.00378-.08337-.00591ZM220.31723,70.61279c.09897.11141.29059.32667.38956.43801.08337.09507.0746.07307.07411.15547-.00195.37835-.00878,1.25699-.01024,1.58543l-.00585.00414c-.09702-.01475-.22915-.03462-.3725-.05613-.17065-.44289-.35836-.92021-.52559-1.3358.13896-.32356.26913-.62658.33252-.77406.05314-.10007.0156-.13518.11799-.01706ZM220.63317,72.90634c.08094.02261.1175.04443.13213.07192-.00244.22556-.00439.47659-.00683.74615-.00975-.0312-.0195-.0621-.02779-.09038-.07947-.21605-.18089-.48464-.29107-.77199.07898.01353.14968.02743.19356.04431ZM220.93643,72.82217c-.06338-.02401-.05071-.09276-.05119-.26755-.01609-.31143.04437-1.21964-.01414-1.47341-.08094-.14761-.29692-.32033-.43783-.49463.39054.18442.83958.31375,1.20086.38304.10434.23994.20868.48019.30716.70812-.12628.36975-.29985.80789-.42125,1.24127-.22428-.03712-.43393-.0738-.58361-.09684ZM219.66974,69.95945c.00439.01438.0039.0312.00878.04534l.03852.06734c.05558.07228.12725.13987.20721.20459.08045.10348.14627.19064.17796.24037l-.01268.03937c-.05266.18905-.16626.43283-.2862.69118-.07752-.19082-.15017-.36829-.21014-.51103-.15651-.37914-.37298-.67686-.58117-.10934-.21794.75426-.83958,1.97316-.57288,2.72388l.03852.06741c.39395.51243,1.47585.83897,2.10432.93088.07996-.00134.13213-.02249.1726-.05193-.03267,4.61117-.05461,13.84297-.10629,18.54971-.09361,5.44113.00439,10.31479-.07655,12.31611-.29546-.41065-1.01267-.54845-1.42124-.65924-.73622-.11366-.19015,1.76442-.18137,2.50381.04388.39005.07996.74609.13652.96921-2.49339.93283-11.25438,4.22368-14.65269,5.47721-2.16526.79692-3.52897,1.32361-4.61136,1.71975-.19551.05918-.27645.15297-.33983-.01329.01463.00305.03218.00634.04632.00939.94928.11372.24524-1.76449.23403-2.50387-.13554-.93075-.21063-1.67794-.7328-.84994-.31789.61372-1.04484,1.4831-1.29106,2.22139-2.48364-6.24201-18.67604-46.93682-21.61312-54.31929.62067.18308,1.47585.14511,2.02192.18735.38712.00366.53729-.15937.37884-.46916-.27401-.50914-1.19258-1.71829-1.66746-2.32372-.41882-.55265-.66406-.28656-.84007.13237-.04583-.05717-.08484-.10799-.10824-.1434-.07118-.1122-.10678-.14633-.02292-.19423,5.77078-1.94525,19.65117-6.62596,23.08896-7.7827.10824-.03986.20575-.06704.30619-.10312.32862-.07819.26377-.25938.74109.30893.00098.00104.00146.00189.00244.00286-.37055-.08179-.76693-.15943-.97074-.0618l-.02292.02633c-.05412.38859.69234,1.15199.97415,1.61547.28425.38664.56996.81465.86103,1.13882.137.13743.25987.27029.43247.21922.30278-.13633.85372-1.64686.59678-2.22803-.16431-.2642-.44222-.38152-.74451-.46148.03072-.098.06241-.20776.09654-.33697,1.1682,1.16509,15.64244,17.34269,18.40106,20.71423ZM198.73727,117.73341c-.12872-.03059-.25353-.06009-.36372-.0863-.22769-.0618-.32082-.0362-.4076-.20075l-.01511-.04004c.04583-.23982.29254-.97445.3764-1.27869.09751-.2745.04681-.32849.21453-.39176.14188-.05296.46611-.17382.66016-.24616.25451-.10964.18527-.04071.21745.10367.02438.18856.07167.52084.12335.87749-.24573.38725-.56362.82873-.80545,1.26254ZM198.68607,117.833c-.08581.16175-.15748.32057-.20965.47446-.17601-.2876-.29595-.48409-.33691-.55137.03803-.05589.27011.00384.54656.07691ZM186.76714,151.94798c-.14871-.00165-.29888-.00725-.44807-.00725-.03315-.09776-.06046-.17729-.0746-.21294-.03803-.07551.16821-.07417.48951-.1665.3096-.07521.68161-.16547.82593-.20051.14627-.02389.12287-.03163.21843-.33471.08679-.2812.18722-.62786.20136-.65577l.01658-.01597c.05119-.00695.12774-.01908.21306-.03291.05119.22976.11799.47123.15261.70459.00878.04278.01999.08648.03218.12969-.25548.27761-.53095.5766-.78595.85342-.26718-.04748-.60994-.04272-.84104-.06113ZM185.99826,151.62711c-.15748.03449-.392.08892-.68307.15809.08386-.04181.17503-.10068.2823-.20203.10385-.10184.23013-.22093.36323-.34733.04778.15736.09361.30217.03754.39127ZM186.62526,150.5641c.40078-.06101.86201-.13115,1.09896-.16736.1019-.00804.13603-.044.11263.02474-.06582.22001-.1843.60677-.24134.79863l-.00829.01c-.22087.05278-.88102.21562-1.14138.27834-.24329.03833-.24427.12475-.28571-.04138-.02682-.07655-.06826-.19454-.11068-.31557.19405-.18576.3959-.38694.57581-.58739ZM188.07039,150.13041c.01511-.05174.04388-.14755.0785-.26243.00098.10105.01316.20807.03413.32033-.08727.00171-.13457-.01341-.11263-.0579ZM187.91974,150.17551c-.03705.08417-.08094.07289-.21209.10934-.21306.05997-.59775.08776-.96293.14249.19356-.23171.34276-.45636.38469-.64541l-.00683-.04705c-.10775-.27693-.83178-.23671-1.2267-.26804-.36713-.00402-.74304-.04315-1.09458.07935-.58751.29802-.20088,1.05569-.10044,1.73645.05119.24774.15163.52663.36762.56149-2.70694.64894-9.40701,2.33316-12.30849,3.01209-7.10865,1.73084-14.57321,3.55176-15.40304,3.75093-.02389.00341-.04242-.00341-.05948-.0245.3608-.14468.37737-.56088.36372-1.07928-.03218-1.02394-.33934-1.12292-.98439-.59464-.28327.26078-.78059.55734-1.09604.87261-.41199-2.18147-1.60457-8.6452-2.71913-14.62173-.68649-3.60978-1.69915-9.12575-2.17355-11.7556.27791-.0685,43.76645-15.08869,45.99948-15.76786-.40224.7222-1.27887,1.74864-1.3247,2.51728l.02974.07466c.37396.4207,1.31349.55917,1.84542.67107.04973.00591.09215.00341.13262-.00104-1.13797,3.78372-2.73229,9.07297-4.14964,13.74552-1.6109,5.37732-4.12185,13.59992-5.30126,17.53186ZM98.39905,138.17419c-.35494-.19734-.93514-.51218-1.42368-.78132-.04583-.30302-.11116-.6398-.17211-.94989.10873-.0682.19941-.12421.23793-.14749.06582-.03815.10873.05497.26426.22026.14139.1598.32374.36512.4115.46446.1058.12482.08435.10702.34568.12024.25109.01085.5802.01889.6153.02584l.02145.01207c.04486.1587.11165.42454.17796.69063-.1609.10312-.32618.21977-.4783.34519ZM96.77888,136.32286c-.04047-.20313-.1019-.44197-.20673-.62487.16528.18466.29595.33081.3725.41626.01511.06113-.05802.13176-.16577.20862ZM98.33128,136.46656c.06436.02944.14383.07393.23062.12305.05704.23098.09849.40949.09215.41156-.1882.0036-.60604-.02023-.77279-.02407l-.01511-.00567c-.14724-.16449-.4588-.51176-.61335-.68435-.0746-.0841-.07703-.06631.01219-.12323.04778-.02901.14919-.09325.26767-.16882.2667.17894.58215.33374.79863.47153ZM98.6989,136.66665c.40078.22318.88492.44947.91808-.09276.01853-.3686-.12677-1.09007-.24281-1.68361-.08825-.46227-.27547-1.20306-.88395-.86804-.48415.28266-1.34226.79351-1.45586,1.34689l.00049.03395c.02584.19435.18966.36549.39883.52005-.13505.08484-.26085.15248-.3608.15346-2.6616-2.96316-9.45723-10.58447-13.24607-14.82973-2.85857-3.19322-8.23199-9.22991-10.03353-11.24286-.05558-.09958.08679-.21514.19502-.28413.04242.28388.11311.53943.23598.6963l.07947.04187c.19844.0209.43686-.11311.67479-.28644,7.36315,3.89348,55.74194,28.62809,53.15152,27.94849-5.68643-.23037-23.05971-.83995-29.28441-1.11457-.06192-.06509-.10678-.19051-.14676-.33886ZM72.25161,110.51945c-.13213-.03766-.26523-.07521-.39639-.10665-.00488-.36305-.00926-.77778-.00926-1.15455.21501-.1609.4271-.34544.60848-.47513.00585.00707.01073.01457.01999.02011.13749.09093.95416.48208.96391.51608l-.00634.03529c-.01755.04138-.07801.11159-.1019.17229-.06192.11055.21258.31222.23452.3842.01853.03949-.01219.05363-.06241.09666-.1999.16644-.4978.41467-.79619.66345-.14237-.05168-.29449-.10214-.45441-.15175ZM73.20772,48.94689l.00098-.08709.60506-.84958.39054.24311-.98195.70136c-.00488-.00256-.00926-.00524-.01463-.0078ZM73.65433,49.73071c.11653-.12853.18771-.23488.11409-.37975-.05753-.10135-.22818-.22208-.44173-.34074.21892-.20069.58702-.40175.81228-.5827l.04096-.02688c.03657.01079.10239.04077.18186.07953-.01316.07143-.02535.14804-.039.21441-.05704.34251-.08191.57441-.01511.6451l.02535.01883c.1882.00628.50073-.21751.80789-.45465,6.20763,3.53781,39.45445,24.56969,45.61431,28.34744.04924.43704.13896.87944.33252,1.10274l.08094.03791c.18089.01036.38859-.11043.59678-.27041.01073.16022-.00293.32563-.07313.34842-1.60652.22062-28.8222,3.77714-30.4292,3.98606-.04486.00049-.0707-.01694-.08532-.11403-.01609-.09623-.0195-.33428-.02048-.62304.41589.08807.76255.02968.82057-.56009.01853-.5429.08191-1.55892-.20965-1.96902l-.07752-.04547c-.3998-.06131-.99219.50353-1.40174.75682-.30765.22897-.68307.46477-.85372.75347-.13847.21526.04486.4012.37689.57477-.34422.22891-.72013.47525-1.06727.70404-.03462-.1495-.08191-.28138-.15066-.37786l-.07752-.04553c-.3998-.06125-.99219.50359-1.40174.75688-.30765.22891-.68307.46477-.85372.7534-.22477.35007.39639.6228,1.13456.89041.63285.21331,1.32373.47147,1.40808-.38615.00293-.07862.00634-.16894.00975-.26414.13505.03888.26767.07722.39005.11324.88492.2319.39736.24884.13457.5471-2.85077,2.3654-7.79075,6.47305-11.0969,9.21717-2.57091,2.09304-4.10624,3.48984-5.57478,4.59003-.01268-1.02936.39297-35.50649.52364-47.60947.17162-.12866.33495-.25847.46416-.38786ZM144.42194,51.38372c.02097-.10172.04486-.2077.06728-.31405.41735-.19405.87078-.40041.89077-.39212.03267.00957.13944.06972.16626.08215l.01073.01274c-.19112.23196-.70063.85128-.7957.9672-.02048.02864-.20039-.03401-.40029-.11263.0195-.08715.03852-.17089.06095-.24329ZM146.93044,50.72393c-.01609.02724-.03462.05845-.04973.08496-.07118.11031-.06241.14481-.11409.12981-.1609-.0351-1.0897-.23683-1.0975-.23866l-.03169-.01426c-.08045-.04217-.1804-.08545-.09215-.09544.15163-.06808.46806-.21252.80399-.36616.16285.14913.3647.33288.58117.49975ZM175.60345,59.40466l.04924.07374c.09507.07892.21648.13707.34666.18716,1.48511,3.72997,6.44459,16.18863,11.28315,28.34256,2.96389,7.42861,8.22029,20.64073,10.42845,26.20948-.0156.06984-.03413.14054-.03803.20685l.02974.0746c.05022.0568.11263.10751.18089.15468.03949.09885.07996.201.11653.29388-.00341.05046-.05071.14444-.10873.20819l-.01511.01518c-1.52558-.74384-15.28067-11.23933-20.2694-14.79987-.04778-.05546-.01463-.09014.04242-.17455.04632-.06728.15114-.18101.26913-.30777.24866.4037.54314.64364.98049.22099.36518-.4037,1.06971-1.13785,1.12383-1.67349l-.02633-.09343c-.25012-.34885-1.04533-.36128-1.50608-.47525-.37103-.05619-.7957-.15791-1.10628-.06448-.29741.07606-.20819.49006.01121,1.02059-.15066-.01719-.28522-.03577-.3725-.06472-.10239-.03425-.31058-.02389-.31838-.12329-.41882-11.38097-1.11603-28.29533-1.5168-40.07305.06777-.06113.33008-.05479.38566.03273.00585.01426.01658.04108.02438.06095-.06192.27852-.08484.54576.00585.74835ZM198.05955,114.79488c-.00439-.01158-.01316-.03376-.0195-.049.02584.01335.05168.02633.0785.03888-.00829.00865-.01658.02292-.02487.02931-.01901.0131-.02584-.00006-.03413-.0192ZM198.24873,115.55938l-.33495-.24677.14773-.22373.18722.4705ZM196.77434,115.49392c-.00098-.00018-.00244-.00183-.00293-.00183-1.93123.61232-35.61442,12.24182-46.11016,15.80425-.37786-1.49913-1.18624-6.36396-1.59628-8.45962l.00049-.01475c5.27639-4.39659,21.40444-17.97737,26.02457-21.61342.07947.21764.18771.46068.30863.71562.32033.64175.65333,1.36158,1.2701.76559.36518-.40364,1.06922-1.13785,1.12383-1.67349l-.02633-.09337c-.1097-.15285-.32569-.23945-.57093-.29997.05022-.04876.1019-.0969.15651-.14322.07167-.06143.11311-.08087.14773-.07582.4978.32886,6.06819,4.46637,11.26121,8.28282,2.58261,1.8804,6.96969,5.15279,8.77074,6.4636.06143.04376.10483.07679.15602.11701.08825.1236-.10434.41522-.30814.51669-.10044-.56618-.23403-.84836-.60506-.2901ZM133.59271,137.14592l-.00634-.0362c-.09946-.28291-.56313-.47586-.95757-.63261,4.77664-3.90074,15.99494-13.57822,16.40596-13.50186.32423,1.78027,1.04387,5.5763,1.3525,7.27033.07508.56338.21014.8063.16138,1.07897-.51096.19234-11.63371,3.99959-16.95593,5.82136ZM129.43234,138.16401c-.24037-.01383-.17796.0231-.22672-.115-.04096-.12817-.11653-.36543-.20039-.63005-.01658-.05113-.03315-.10361-.04973-.15626.13652-.11129.27108-.22891.39688-.35141.33398.47464.74597,1.0655.9015,1.28082l-.00488.00268c-.1999-.00841-.5958-.02182-.81667-.03078ZM130.16271,138.31247l-.53534.18363-.33349-.17394-.01365-.04291.88249.03322ZM127.45626,137.02561c.02779.12482.06387.25841.11165.38146-1.83128-.95361-5.2642-2.7415-9.55279-4.97477-4.10673-2.13844-8.99063-4.68181-13.98424-7.2821-7.49967-3.888-23.0758-12.02241-28.93141-15.07059.20283-.1573.40126-.32843.56898-.44344.29692-.24317.66065-.49634.81764-.79271.20819-.36019-.42515-.60348-1.17502-.83617-.28522-.08142-.57922-.16589-.82495-.1651,3.75276-5.69563,11.69563-17.82263,14.5971-22.2158.25938-.39176.48171-.73171.6665-1.01388.21063.11275.48317.2205.77717.32709.63334.21337,1.32373.47141,1.40857-.38615.00585-.17315.0156-.39602.01755-.63048,5.00969,7.21646,31.68662,44.37413,36.08345,51.19701-.20234-.06801-.40126-.1175-.59044-.1086-.5841.13786-.13749,1.1735.01024,2.01424ZM72.92737,108.40051c.32472.07198.7684.1704.97415.21599l.00098.00914c-.05997.0905-.3174.49262-.36372.56289-.03072.04802-.039.02999-.11799-.01024-.23062-.13384-.85323-.42857-.86201-.47574v-.00049c.12189-.09788.24914-.19765.3686-.30156ZM73.68114,109.17049c.04729-.07204.15895-.23951.24524-.36982.00341.20721.01024.43661.0312.66382-.08435-.04193-.18479-.11348-.29839-.16004-.06046-.03072-.03559-.04473.02194-.13396ZM88.76776,82.05415c.3725-.24786.78595-.52248,1.15796-.7698.1882.08886.40809.17522.64407.26066.15699.05302.31838.10879.47245.14956.00098.31088,0,.61616-.00829.7996l-.01365.02511c-.13213.10318-.97854.87085-1.14089.91637-.26328-.06472-.67283-.18491-1.06191-.29936.00975-.34477.00829-.74609-.04973-1.08214ZM91.20606,82.58401c.23062-.1058.82349-.11098,1.83616-.26792,6.87364-.8895,21.59898-2.83767,28.63936-3.74728.09215.00676.08337.07435.11165.20319.02438.07655.03413.22629.04242.40096-.46855-.07417-.86201-.01554-.86396.62414.03315.54217.06631,1.55965.3959,1.94025l.08142.03791c.4037.02304.94002-.5955,1.32324-.88651.28474-.25713.63627-.52754.77864-.83105.1175-.22854-.08435-.39675-.43442-.53839.06582-.05595.12823-.10653.18089-.14133.05461-.03565.17552-.13189.21404-.08289,1.18331,1.29259,15.77164,17.10597,20.79547,22.58428.04047.07143-.0156.09873-.09117.17083-.04632.04028-.12335.09617-.21111.15767-.16528-.39468-.41101-.64961-.93075-.35891-.45636.29497-1.32617.8238-1.49584,1.29752l.00683.08947c.17796.36317.98049.52657,1.42222.71763.36372.12189.77181.2951,1.10628.27011.2745-.0103.30814-.30704.24281-.72421.37006.11488.7094.21556.82837.28023.2194.0944.27157.10495.3096.27511.00293.01944.0078.04638.0117.06795-.07606.0927-.13993.1854-.1726.27614l.00683.08947c.04973.10123.15066.18588.27596.26103.58361,3.23308,2.63088,13.87893,3.33151,17.99407-.8547.81021-12.59176,10.46088-16.25384,13.54702-.05948.0504-.11506.09581-.1726.14383-.07606-.03035-.14871-.05979-.21258-.08794-.37689-.13841-.76547-.32142-1.11847-.30479-.33008.07789-.32813.44545-.23988.89925-.02292-.00884-.03949-.01481-.06387-.02432-.3608-.14407-.7762-.29242-1.17161-.44356.06777-.11165.1214-.22379.13798-.33532l-.00975-.05808c-.12872-.36622-.8703-.58245-1.2779-.7634-.09361-.03431-.18771-.07137-.28181-.10745-6.28808-8.89507-31.59496-44.85261-36.33309-51.57158-.01219-.41455-.06338-.82611-.22428-1.05271l-.07752-.04553c-.1214-.01853-.26085.02426-.40711.09459-.0117-.0167-.0273-.0384-.0351-.04949ZM121.9512,77.97094l.61433.38237-.6626.08673-.03169-.40139c.02682-.02212.05363-.04492.07996-.06771ZM122.33686,79.27901c-.12628-.02962-.25451-.05881-.37981-.08331-.02633-.34007-.04632-.62725-.03998-.6309.196-.03657.60458-.08081.79911-.10903l.01365.00481c.11214.12274.3686.39822.50073.54192.17455.19758.17016.12945.04193.24786-.05168.04467-.14822.12914-.2628.22964-.19697-.07161-.4271-.13755-.67283-.201ZM146.44532,102.85724c.73817-.0827,9.88336-.99487,17.69653-1.78277,3.16427-.32539,9.25538-.92777,11.17784-1.12157.14042.04236.18869.24524.26377.40151-.15407-.01073-.30278-.00957-.42954.02871-.23062.05893-.22623.32319-.11165.68484-.81374.67875-2.38125,1.9728-4.36124,3.62185-7.51771,6.24457-20.96417,17.41649-21.59703,17.93977-.02194.01591-.03218.0181-.04096-.00372-.01511-.04083-.039-.19381-.0902-.46184-.61872-3.30579-2.60017-13.9445-3.22376-17.35189.32033.15962.74987.27139,1.03314.39389.36372.12189.77181.29504,1.10628.27005.41589-.01554.28425-.68106.0824-1.43971-.18674-.64127-.36957-1.3556-1.12188-.93496-.0941.06076-.2077.13341-.32715.21154-.05997-.19155-.10385-.36518-.05656-.45569ZM175.79067,98.68475c.40711.06095.79863.12238.80204.13146.01901.21764.02682.66473.03803.87938l-.00634.00993c-.26865.0231-1.15601.12421-1.17307.11232-.0117-.01341-.10726-.2205-.21745-.46599.17455-.19277.37932-.42589.5568-.66711ZM177.62878,99.34418c.07216.14432.14481.29205.22135.42844-.137.14627-.26085.27852-.32277.34495-.0902.08532-.08532.12689-.13749.08423-.17503-.12847-.48122-.35629-.63383-.46849l-.00731-.01444c-.00488-.15639-.02389-.60756-.02925-.77035-.00975-.17394-.01219-.11519.1331-.10458.10239.01633.33349.05065.58946.08861.05753.13286.11945.26974.18674.41162ZM177.17486,100.18156c.1687.13323.20234.11226.12482.18003-.04778.05119-.12725.13566-.2194.23336-.28425-.05936-.59287-.09111-.82008-.1473-.08435-.0128-.17162-.02803-.25938-.04266.22233-.18479.55923-.45721.69039-.57033l.01219.00049c.08922.06728.35299.25792.47147.34641ZM175.69072,100.36013l-.18869-.41991.99365-.09995-.65187.5418c-.05119-.00762-.10239-.01633-.15309-.02194ZM145.58038,103.99241c.01365-.01164.03705-.01323.05851-.01676-.01706.01682-.03657.03352-.05217.0504-.00195-.01012-.00439-.02407-.00634-.03364ZM145.77784,103.84388c-.09556-.03169-.16821-.05595-.19405-.0646-.04096-.01341-.0351-.02974-.05363-.12226-.03072-.18856-.09897-.47391-.11848-.68454.01121-.01889.25841-.03011.49439-.05808.25207-.0167.37981-.06058.37347-.00847.01511.04985.07265.24183.13847.46184-.21404.14237-.44417.30558-.64017.4761ZM146.19373,102.76844c-.21794.02279-.60165.05985-.7918.07959l-.00878-.00463c.00146-.16961.0039-.60671.00585-.94843.15261.05205.29839.10184.41784.15346.0746.02505.15212.05266.22964.07984.05461.18911.10726.36823.14919.49719.02633.11452.0668.13926-.00195.14298ZM145.27809,101.85335l-.00536.90114-.71281-.77406.37786-.25634c.1097.0462.22477.08904.34032.12926ZM145.27566,102.93702l.00585.01463c.02048.11641.11897.63578.13457.7261.03608.10653-.09069-.00341-.32959-.06283-.15748-.0526-.44612-.14889-.75377-.25189-.0351-.17961-.08289-.37518-.13749-.5791-.04534-.15639-.09069-.31667-.14432-.46428.22135-.15175.39346-.27169.40468-.26792.22428.22568.61823.67101.82008.88529ZM90.75555,82.93542c-.12872.09276-.25353.18649-.36957.26731l.42662-.35434-.05704.08703ZM91.02371,82.75465l.00731-.01146v.00683c-.00244.00158-.00488.00305-.00731.00463ZM129.43771,136.82663c.08776-.09123.16626-.18387.23159-.27785.41833.15968.8976.34288,1.30081.49695.03754.17241.0824.3536.12677.53638-.26621.2308-.5685.49439-.72013.5749-.1175-.17546-.60311-.85238-.93904-1.33037ZM131.12759,137.7093c.01999.08666.03705.1715.05412.25609-.30229.10288-.61774.20807-.60799.20319.0351-.03303.29644-.2478.55387-.45928ZM175.17244,58.42076l-.03413-.89986.36616.91954-.33203-.01969ZM175.88623,57.67631c-.05948.21904-.15504.48464-.2311.75206-.14383-.17979-.39785-1.00462-.51389-1.22914l.00975-.00945c.01609-.00549.34422-.1161.45928-.15474.06875-.02304.06095-.01219.09702.02864.05802.07009.15699.1882.2745.3274-.03413.09386-.06582.19076-.09556.28522ZM175.47473,56.78073c.08191.11159.16236.13317.06192.15937-.10385.03449-.32618.10958-.46075.15431l-.01706.0028c-.34129-.07417-.95416-.20636-1.31057-.28376-.10775-.01938-.0707-.00768-.01853-.15639.00195-.00475.00585-.0139.0078-.0192.55436.12695,1.23792.11604,1.73718.14286ZM174.99887,57.20679l.00536.00719c.00926.25615.03267.83391.04291,1.11652.01658.13786-.0039.06875-.20819.07338-.0668-.0039-.16626-.00975-.27547-.01627-.30326-.43393-.6821-.93825-.98877-1.33628.03364-.08014.05753-.13451.06095-.13591.08045.00481,1.12285.24195,1.36322.29138ZM173.44891,56.88866c-.00195-.00232-.00341-.00451-.00536-.00683.00146.00061.00439.00128.00585.00183,0,.00146-.00049.00347-.00049.005ZM172.05692,59.03015l.04924.07374c.55289.45745,1.79959.37213,2.51435.42741.38761.0036.53729-.15937.37884-.46922-.07752-.14353-.20868-.3455-.36372-.57118.17991.01158.32764.0334.40858.07996.03998.33264.14822,3.77799.33788,8.52727.30034,7.79056,1.17015,30.56188,1.20379,31.5314-.08094.0746-.392.01914-.72647-.04156.17406-.25122.30911-.50548.33154-.72622l-.02682-.09337c-.25012-.34891-1.04533-.3614-1.50559-.47531-.37152-.05625-.79619-.15791-1.10676-.06454-.38956.09971-.11653.77821.24476,1.54106.32033.64175.65333,1.36164,1.27059.76559.02194-.02444.04876-.05363.07313-.08033.03949.0913.07411.17272.0902.22891.0156.04729.05656.16425-.0039.17095-.95416.0699-15.3538,1.57037-20.45613,2.06184-3.55286.35366-5.97019.61122-8.33828.83276-.13798-.1119-.19307-.33008-.25402-.57703.25743.08752.51828.16309.74499.14615.4154-.01548.28425-.681.0824-1.43965-.18674-.64127-.37006-1.35566-1.12188-.93502-.13213.08532-.29936.19173-.47342.30911.03949-6.24554.24086-39.95664.2862-46.78348.2628.19783.54022.36201.77961.38987l.08727-.02145c.33105-.21148.37298-.90412.49585-1.30331.06582-.32264.17601-.69081.1019-.96318-.04047-.18076-.24037-.1999-.52364-.13566.08971-.15651.18186-.29181.31496-.34855,5.80344,1.252,16.24653,3.54268,22.43466,4.88555,1.38858.31813,2.48949.53595,3.20718.69148-.10239.17205-.18332.41248-.25451.63767-.13847.51212-.48366,1.27808-.28279,1.72834ZM145.73153,51.75677c-.00878.00396-.01755.00798-.02682.01201.00146-.33477-.00244-.91662.01219-.93466.19941.02578.6036.1303.82739.17345.15114.03852.20916.02828.17894.06954-.02535.04431-.11848.20447-.22915.39486-.22428.06558-.48707.16918-.76255.2848ZM145.58282,51.82314c-.10239.04565-.2038.09197-.29839.14066l-.42125-.16016.725-.87475-.00536.89425ZM144.72032,51.93936c.09897-.09837.28279-.00744.47586.07508-.36616.20654-.58264.45532-.21843.83538.13359.12201.30911.2862.50121.44697.2667,10.73415-.22038,41.13496-.20088,47.04615-.38907.27206-.78205.5961-.89029.89833l.00683.08947c.07265.14773.25012.26145.4627.35842-.13896.08033-.2745.14852-.34666.18875-.03608.0103-.05948.00744-.07801-.00402-5.83465-6.32538-15.08223-16.35184-20.86568-22.64979.05168-.16242.27157-.35878.529-.57045.05168.17363.1175.32459.20673.42735l.08094.03791c.40419.02304.94051-.5955,1.32373-.88651.28474-.25713.63578-.52754.77864-.83105.19064-.36982-.45392-.58239-1.21403-.7787-.28815-.06753-.58556-.13768-.83129-.12524,3.15745-4.24008,19.32645-23.19586,20.27963-24.55805ZM123.92192,77.39739c.02097.35178.05607.79076.14724,1.15363-.33105.29302-.60994.53717-.6114.52669-.16382-.16528-.37689-.40797-.56167-.60567-.05997-.06741-.07801-.07387-.05363-.10312.20283-.24049.82934-1.01425.84884-1.01986-.00585-.00219.09117.01828.23062.04833ZM123.5387,77.34363c-.02389.02883-.07167.08636-.09556.11513-.19015.23049-.50706.61323-.68941.83349-.02389.05461-.09069-.02877-.29156-.14249-.10921-.08374-.28425-.17113-.42174-.2553.16138-.142.31643-.28602.45197-.38895.12238-.11037.25499-.22403.3803-.34087.09897.02206.19112.0426.26328.05887.28327.07636.46952.07374.40273.12012ZM72.71041,97.86875c.86688-.63121,13.47766-11.33715,16.67802-13.80738-.11214.19051.02828.35793.2979.51444-.47586.72549-1.20769,1.84018-2.09944,3.20011-2.81469,4.21217-10.98574,16.86786-13.18561,20.06584-.26572.0259-.45636.18265-.47879.61737,0,.01548,0,.03486.00049.05119-.19844-.01889-.6153-.0983-.92247-.17796.12677-.11701.23988-.2386.30911-.36963.16772-.2904-.21404-.50444-.76011-.69855.01365-1.34841.04339-3.9554.06582-6.06569.0234-1.43282.01073-2.34164.04388-3.24399.0078-.03858.02243-.05899.05119-.08575ZM73.4281,109.57346l.12677-.1932.41687.21745-.29839.25048-.24524-.27474ZM128.39725,137.70698c.14042-.11616.32277-.25475.50999-.40535.08776.28565.16333.54125.16236.64974.00195.02243.00585.06704.0078.08941.0039.12244-.03315.12622-.09849.10062-.09166-.04742-.33203-.17272-.69965-.36403.039-.02188.07557-.03748.11799-.07039ZM129.70343,138.59776c.2233-.06216.60653-.24183.72354-.22928.04291.02011.16918.12543.19161.15553.01999.01475-.16138.14688-.37542.29644-.18771-.08313-.37981-.1559-.53973-.22269ZM130.54252,138.31448l.66552-.2283c.00244.01085.00536.022.00829.03291l-.48951.34617-.1843-.15078ZM131.23973,138.21295c.12579.46111.37542.93246.90101.52425.43929-.36275,1.26961-.92734,1.42807-1.48005,4.23398-1.49151,11.13981-3.80121,14.36064-4.9276,1.34274-.44484,2.00875-.71452,2.64356-.8926.01511.00542.02048.02316.02779.0568.20868,1.15893,4.10868,22.01395,4.90097,26.37281-.08484.09666-.15309.19466-.18576.29412l.0156.05022c.06875.05314.15943.09928.25792.14212.0234.13164.03949.22598.04729.27352-.06338.20216-.22964.06247-.37006-.0696-.27547-.22507-.76888-.62853-1.43051-1.1699-6.57428-5.37878-16.77748-13.71084-22.9973-18.81146.02389-.11104.21111-.23915.40078-.36262ZM157.13315,158.61386c-.00341.01676-.00731.0323-.01463.03486-.12092.03005-1.01998.24841-1.3013.3174l-.00975-.01914c-.01316-.16297-.1097-.22355.06631-.32868.04291-.03273.09702-.07429.15846-.1211.37298.08922.7879.12823,1.10091.11665ZM155.71971,158.50392c-.00488-.02474-.01219-.06162-.02097-.1047.05753.02109.11945.03961.18235.05765-.05412.03529-.14139.08843-.16138.04705ZM155.67486,158.88214l-.06923-.05668.05119-.03913.01804.09581ZM155.65682,159.02866l-.40273.22452c-.01073-.04766-.02243-.093-.03657-.13164l.2862-.21831.15309.12543ZM155.3126,159.76164c-.00488-.15047-.01755-.27505-.03413-.38645.19454-.10763.37591-.20782.50073-.27864l.02048-.00817c.29741-.07435.89175-.21794,1.20428-.29473.1765-.04291.15943-.05552.1765.11433.01658.1626.04681.45813.07557.74158.00488.04674.00975.09178.01414.13725-.16723.15096-.40224.31381-.63237.48494-.3959-.07344-.89711-.16541-1.32324-.245.00098-.08514.00049-.17278-.00195-.26511ZM197.6617,117.59293c.00049.00018.00098.00043.00146.00067.05461.02279.07606.04236.08045.06424-.01511.05113-.03218.10684-.04778.1587-.01024-.07374-.02145-.14828-.03413-.22361ZM197.64025,117.47135c-.03023-.16882-.0629-.33581-.09166-.49353.0941.15444.18966.31149.25402.41729.02487.09495-.01219.12232-.16236.07624ZM197.49935,116.68089c-.01511-.1058-.02584-.2035-.02682-.28553-.01755-.12098-.03462-.23848-.05119-.35019.14334-.21532.34568-.512.41979-.63011l.01511.00158c.0156.0117.19795.14517.33447.24512.17845.12597.12482.08228.08727.24238-.08337.26188-.40126,1.34476-.41687,1.35317-.07216-.11031-.22769-.35854-.36177-.57642ZM199.34282,115.32047c-.26426.09861-.66845.24805-.9171.34081l-.01024-.00658c-.00536-.01329-.15114-.37896-.22818-.57191-.06728-.16126-.04778-.10251.02828-.2344.00293-.00414.00878-.01268.0117-.01719.35641.14542.784.2319,1.12383.29924.01658.13554.04778.17747-.00829.19003ZM201.12632,49.24089c-.01901.05375-.04486.17485-.07313.31143-.16967-.03961-.34276-.07252-.50609-.11531-.1019-.0156-.22184-.04144-.34763-.06948-.13213-.15651-.25109-.29753-.31691-.37591-.06387-.08642-.11068-.09678-.04632-.11543.20234-.06765.6977-.23354.89614-.29997l.01511.00536c.01024.01195.20819.2333.33008.36994.12725.13396.0863.0891.04876.28937ZM200.32818,47.42838c.04242.01146.09507.02554.14334.03852.10678.14066.20478.27334.27401.38761.17698.24025.35446.49414.5329.73159-.03705.16029-.06972.28961-.08679.3199-.11068-.10483-.44027-.47434-.529-.67619-.12433-.21209-.30131-.51401-.40468-.69014-.10824-.19234-.1292-.16083.07021-.11129ZM200.10146,47.49499c.12579.2116.42808.71982.53632.90089.04534.07594.03608.08673-.0785.12524-.23988.07959-.60165.20319-.81325.27023h-.02097c-.10629-.12232-.37932-.44222-.67381-.78912.10921-.2439.20819-.54595.26767-.84086.21355.05674.42418.11263.61969.16449.08484.02084.08045.03364.16285.16912ZM186.75642,24.01062c-.05217.24853-.02584.51285.07216.7542-.18674-.22562-.5329-.92539-.588-.94179-.23598-.11708-.62262-.28193-.99365-.43777.16675.00695.3291.00957.48512.00829.34324.20526.69721.41784,1.02437.61707ZM185.30007,24.61696c-.23842-.08898-.56898-.29571-.89516-.47214-.04144-.28187-.08484-.57727-.11263-.81411.18284.01042.39249.02474.61043.03736.33252.14371.72305.31411.97951.42046.29254.13932.25012.05028.39444.30966.15407.2628.42028.70843.431.73329l.00049.01359c-.02292.00268-.47391.00323-.97317.00329-.16187-.07777-.31301-.1545-.4349-.23141ZM152.08738,9.42198c.24817.10665.49097.26011.73622.3962-.0234.1328-.05314.30771-.08142.47092-.30326-.04254-.63822-.07801-.97317-.10348-.28571-.18466-.5763-.37256-.76742-.49609-.15943-.12092-.27889-.13676-.19502-.17369.09459-.0579.54022-.32849.6626-.40321.00683-.00396.00878-.00201.01414-.00451.22915.11653.46026.2311.60409.31387ZM151.32288,9.0657c-.00293.00945-.36372.22294-.54704.33654-.15358.0994-.09995.06759-.26572-.02718-.02194-.01408-.04827-.0312-.07313-.04742.01609-.13579.00293-.28376-.03705-.41674.46708.07362.94148.14895.92295.1548ZM150.41455,9.42259c.00878.02267.01853.04547.01609.06783-.00975.00616-.02682.01639-.03852.02377.01073-.02791.01511-.06088.02243-.0916ZM128.11056,23.30006c.00244.00098.00634.00268.00878.00378-.05802.19588-.09897.40096-.15504.55637-.01121.04626-.02438.09465-.03705.14261-.3764.13975-.82203.30527-1.21208.4502-.21843-.15139-.48561-.32545-.75328-.44624.01268-.02889.02828-.04674.05607-.05193.11068-.01615.62847-.0412.90199-.06095.26962.04425,1.00486-.54351,1.16186-.59409l.02877.00024ZM126.68883,23.08309c.15651-.06795.31643-.13688.46026-.20892.26913.12104.53047.23872.68697.30924.12579.06509.16285.03858.04339.10739-.11311.06801-.33934.20441-.51682.31155-.20088.115-.24671.16486-.3018.16102-.28327.01792-.86591.05381-1.01608.06338-.0863.03925.02438-.18533.09069-.51968.00049-.00232.00146-.00567.00195-.00798.17211-.06162.35787-.13566.55143-.21599ZM125.18032,24.06705c-.1726.26048-.22184.66741-.31789.93167-.06631.27163-.1765.58385-.10336.80472.07557.27791.70696.04961,1.41978-.24622.5997-.26072,1.27156-.53425.75133-.95465-.03608-.02499-.07655-.05363-.11799-.08258.34666-.12939.73524-.27017,1.0858-.39992-.04924.19618-.08776.39243-.03754.54491.07557.27791.70745.04961,1.41978-.24622.60019-.26072,1.27205-.53425.75182-.95465-.28084-.19539-.74256-.53211-1.16478-.67277.29985-.18101.69673-.41894,1.1682-.7077,5.00677-3.03208,19.61899-11.91911,20.55072-12.46177.21989.00914.60994.28675,1.00048.55161-.43052-.02846-.84446-.04163-1.15455-.0337l-.00439.01335c.1253.15712.96147.53272,1.30374.72951.51291.22056,1.00243.64242,1.54167.69307.40224-.1222.34568-1.11201-.10629-1.21848-.10141-.01944-.2116-.03766-.32667-.05491.03949-.14529.0629-.30515.09946-.42272.22428.11744.45197.21313.68941.23543.05509-.0167.09946-.05174.13749-.09629,2.04483.87152,7.84194,3.35735,13.8331,5.91973,4.97166,2.1254,10.64688,4.55821,15.287,6.54295.18235.46081.60116.83605,1.12675.83653.05363.00146.11848.00494.18089.00811.00731.04199.01463.08465.02292.13828.04827.18552.06095.40882.08922.62688-.36713-.19076-.71623-.32142-.90589-.17101l-.02487.04059c-.21404.73207.35348,1.66173,1.18185,1.66252.62847.01731,1.94586.16961,2.45487-.00664-.17016-.2464-.6231-.46026-1.05606-.66357.24524-.00402.46562-.00798.59726.00676.08971.00676.28864.02005.30814.08465.7328,1.22549,12.21244,20.68943,13.02277,22.06374.03169.06192.00878.07838-.196.03267-.08581-.01895-.20965-.05071-.35007-.0874.05168-.30741.05461-.59635-.02925-.78595-.27645-.44441-.87176-.47623-1.36907-.60665-.43344-.06631-1.1682-.31094-1.47195-.16516l-.02292.02633c-.05412.38859.69185,1.15193.97366,1.61541.28474.38664.56996.81472.86103,1.13882.137.13749.25987.27035.43247.21922.08532-.03833.18966-.18747.29107-.39188.1175.13914.22428.26743.30278.36683.06875.11549.26621.27596.25109.39035-.09702.08496-.68356.24031-1.55337.5471-5.08624,1.6983-17.00712,5.74396-21.96709,7.40417-.17455.08776-.27693.0746-.39492-.02602.36031-.00683.49829-.16766.34471-.46757-.27401-.50914-1.19258-1.71829-1.66746-2.32366-.55436-.73116-.80448-.0298-.99219.56338-.13847.51206-.48415,1.27808-.28327,1.72834l.04973.07368c.14139.11726.32959.19813.54168.25554-.00098.0028-.00195.0053-.00341.00817-.03803.06021-.10385.18442-.17308.15602-.03023-.00707-.07606-.01749-.11458-.02633-.0039-.00463-.00829-.01073-.01219-.01524-.31399-.41455-.53047-.36823-.69331-.14267-4.08333-.90339-19.94517-4.30572-25.62526-5.58965-.02487-.03523-.00341-.10879.03462-.19618.23988.17235.48756.31082.70404.33605l.08727-.02145c.33105-.21148.37298-.90418.49585-1.30337.06631-.32264.17601-.69075.1019-.96312-.07655-.34135-.71233-.11555-1.42904.18546-.6036.26743-1.27985.54461-.75426,1.09299.00536.00524.01268.01188.01853.01719-.1726.08087-.33203.15419-.45489.20478-.16675.06058-.36226.20368-.52072.17406-1.57336-.81246-40.40813-20.88775-46.06091-23.8094.11263-.47202.16236-.90132-.23305-.78296-.13993.04748-.28912.10714-.44271.17278.00926-.18314.05217-.40151.1648-.46203,1.50852.04998,22.53412-1.67136,26.45558-1.5839ZM98.55361,25.41035c-.00098.00939-.00244.02468-.00341.03285-.01073.15127-.00341.09843-.17552.11939-.31448.01962-1.01754.06369-1.13797.07118-.04924.01962-.00926-.09995.01024-.26865.02487-.16455.01268-.15675.09751-.18948.05802-.0259.18722-.08325.34032-.15102.2823.14414.60653.27334.86883.38572ZM98.5224,25.67704l-.04973.47519c-.05753.02517-.11555.0515-.17357.07795l-.93075-.48074,1.15406-.0724ZM97.40004,24.85989c-.04876.00012-.07801-.0139-.08191-.05375v-.00201c.02584.01883.05363.0373.08191.05576ZM97.15089,25.77455c.17894.093.69185.35738,1.00633.51956-.2155.10001-.42564.19935-.62798.29321-.44417-.16102-.87517-.32563-.88492-.33264.11409-.12183.38907-.37238.49487-.47641l.0117-.00372ZM97.13773,25.2723c.00634.01481-.01658.13408-.0312.24555.00049.23647-.31106.39297-.4978.61067-.07557.07301-.08825.09075-.13164.08008.05461-.22672.13213-.49548.17894-.73408.24427-.11068.44758-.19947.48171-.20222ZM75.71379,46.13561c1.22524-1.16661,3.51581-3.34796,6.14279-5.8494,3.91171-3.76081,10.5206-10.01214,13.99692-13.31762.33544.06277.49536-.21892.57922-.55155.01609-.01536.03559-.03364.05168-.04888.02974-.01262.0707-.01249.14822.00646l.04144.01097c.12969.0273.42613.14816.73719.25573-.05217.02377-.10873.05077-.15846.07252-.33398.15639-.55192.26731-.55777.37481l.0039.03626c.3018.34647,1.15991.63657,1.61529.85037.44904.1971.64504-.11994.74109-.50274.03023-.17918.09849-.41833.15797-.65522,10.71416,5.54418,36.75726,18.97102,43.90492,22.6732,1.18526.63871,1.95707.95976,2.097,1.11097-.13115.10745-.41394.21629-.70209.34513.03462-.18881.05266-.37274.01073-.52602-.07655-.34135-.71233-.11561-1.42904.1854-.6036.26749-1.27985.54467-.75426,1.09305.35787.32557,1.0073.95233,1.49876,1.00944l.08679-.02145c.24817-.15846.33398-.58696.41296-.95983.12433.05473.23598.1016.27547.13932-.57727.99932-8.18762,9.87154-13.99692,16.99085-2.23157,2.69225-4.21887,5.09051-5.48799,6.62212-.35007.4201-.63919.7712-.86883,1.04923-.16333.05022-.2823.16833-.32813.39614-.10141.12104-.17747.21099-.22038.25768-.08386.04181-.13749.02785-.26865.00853-.13505-.0106-.30814-.05497-.49195-.10184.13359-.13231.25109-.26956.31935-.41485.19064-.36982-.45392-.58233-1.21403-.7787-.65041-.1523-1.36225-.34367-1.36517.5181.01073.17967.02292.41284.04486.65644-8.16129-4.97106-39.65045-24.68823-45.45487-28.27522.17016-.1331.33252-.26078.4627-.343.32277-.24518.70794-.50146.96147-.75584.11701-.12847.1882-.23488.11458-.37969-.14383-.25463-.9917-.63212-1.48609-.78985-.0078-.00232-.01511-.00183-.02292-.0039.1214-.10836.25743-.2336.40224-.38712ZM74.5885,47.25249c-.06436.27377-.11311.56545-.15943.84677-.01658.01207-.03754.02718-.04876.03584-.05997.04181-.05704.05741-.13115.01103-.09946-.06204-.32764-.20502-.34617-.21648l-.00731-.01359c.00731-.00707.48756-.46721.69282-.66357ZM74.26817,47.0287c.20721.0721.32569.06875.26523.12494-.20673.20222-.42905.4104-.63822.61067-.21648.1843-.5173.68588-.65382.85165-.03998.05034-.03218-.00512-.03169-.13432.00195-.19051.00585-.52181.00829-.75255-.01024-.17089.02292-.28096-.01365-.32264.21696-.1626.45392-.32971.66211-.4978.15017.04547.28961.08752.40175.12006ZM72.99953,47.55009c.03754-.00683.07216-.0103.09897-.00408-.02828.28522.04047,1.09653-.04876,1.32312-.20673-.09818-.4232-.18735-.61384-.25512.03413-.25219.06777-.49951.09556-.70355.16333-.12549.32569-.25585.46806-.36037ZM41.94235,92.74814c.01511-.0209.03267-.04498.04778-.06625-.00341.04815-.00683.09635-.00878.14511-.00683-.00518-.01073-.01006-.01804-.0153-.02633-.03157-.02779-.04827-.02097-.06357ZM41.3056,95.38987c-.11799-.25018-.30083-.48317-.48854-.62121-.01658-.49756-.03413-1.04314-.04827-1.51875.12872-.30765.25304-.62347.3647-.93344.05607.04297.1136.08715.17211.13176.22769.18771.43734.30497.42905.36323-.04681.10074-.13018.21197-.19551.30192-.04291.08008-.18186.19515-.15261.28474.05753.16321.49829,1.05971.49195,1.10494-.11165.19978-.35348.56265-.57288.88681ZM41.5094,93.40421c-.00634-.1125.26913-.39224.33739-.52035l.01219-.00353c.03023.02328.07362.05668.11799.09093-.00975.44027.01219.89425-.039,1.31398,0,.01438-.00049.03279-.00098.04778-.08679-.1743-.3686-.80874-.42759-.9288ZM43.97109,98.85016c-.6704-1.59719-1.28667-2.74777-1.6226-3.50441.30375-.70556.60896-1.49389.77083-2.13107.06826-.39968-.28912-.98475-.63578-1.21988,3.29689-4.59941,10.77901-15.18827,14.98033-21.05516,4.6333-6.51413,9.58448-13.46249,13.92817-19.56731.35104-.10355.94392-.66034,1.30081-.88584.1214-.09227.25109-.18643.37981-.2812-.07655,6.1047-.3647,35.84504-.50853,47.33857-.02389.20246.04047.2595-.03803.35714-.81813.6448-14.82821,12.34871-20.11094,16.70794-.02633-.14816-.07118-.2993-.08679-.41449-.18284-.5535-.38225-2.15606-.66503-1.98108-.3057.39998-.50804,1.11219-.71672,1.59158-.02389.06521-.04242.12518-.06046.18485-1.09165-2.22218-4.58015-10.11385-6.91509-15.13964ZM51.70675,116.81058c-.0351-.14206-.10531-.99463-.13652-1.22134-.00585-.13042-.04096-.1364.02974-.19076.07362-.0607.24281-.20057.25646-.21178l.01073-.00372c.03754.18661.09946.49548.16138.80515-.1175.27029-.22087.5646-.32179.82246ZM51.52147,115.31816l-.01511-.00177c.00585-.0075-.09264-.1946-.17211-.36628.14481.0657.30375.11366.45831.14462-.08776.08776-.26718.20794-.27108.22343ZM50.97199,116.66517c-.06436-.26121-.13164-.60476-.20429-.92015.15163-.34361.3057-.69185.37396-.84616.00878-.02023.01414-.03236.01853-.03931.00634.00366.01316.00664.01901.01024.00926.01591.02145.04284.04534.09526.16431.34519.23305.4708.25061.86835.03315.31484.07606.72884.09361.89474.00975.09867.02243.08868-.0863.06259-.08971-.02133-.2979-.07289-.51048-.12555ZM55.45999,151.83779c-.2116-.2943-.43881-.60939-.63188-.87804-.02877-.19015-.06631-.38688-.1058-.55619.05071.01073.10141.02145.14871.03145.04729.01012.14286.03029.19015.04035.05802.01158.04827.03468.06046.13847.0195.12847.03072.39822.05997.49817.0273.03718.49049.30351.65138.4076.14676.08112.09654.05637.1058.26987.00049.07021.00049.1662.00049.26523-.14968-.09434-.31448-.16815-.47927-.2169ZM55.93488,151.14631v.29065l-.64163-.39395-.05558-.52754.31399.0668c.07606.10397.14432.20197.19064.28486.06387.09044.12823.1843.19259.27919ZM55.20207,150.32544c-.01073-.09227-.02243-.19405-.03315-.28961.07752.13061.18089.27364.28522.41406-.09605-.04077-.18917-.07746-.25207-.12445ZM56.09773,151.54751c-.02828-.04486-.04291-.13896-.05948-.2489.08581.12719.17211.25298.2589.37384-.09166-.05711-.1609-.10032-.19941-.12494ZM82.57524,168.38959c-.10093.05253-.23257.12092-.37006.19204-.14042-.07898-.27157-.15358-.36665-.22026-.098-.05662-.19551-.11513-.29302-.17315,0-.2027-.00049-.40053,0-.54144.00731-.12829-.00195-.22501-.00146-.28077.02633-.00408.05314-.00762.07996-.01292.11897.0732.39931.24494.54266.33307.16821.10336.65089.38505.78741.46599.09946.03108-.11409.0824-.37884.23744ZM83.11741,168.10547c-.21648-.10422-.91564-.53711-1.32617-.7907.08337-.02097.16577-.04351.24524-.06332.16967-.0565.41833-.11878.62895-.20008.12872.06704.25646.13365.37932.19771-.00731.24342.0234.55734.10044.84592-.01316.00579-.02487.01079-.02779.01048ZM84.29048,168.78001c.08825-.022.17601-.04632.26085-.06734.30131-.10038.85762-.2169.9917-.43113l.01073-.03992c-.05412-.31241-.85762-.64968-1.20038-.89004-.3213-.18546-.64017-.39943-.95123-.50457-.12969-.03736-.24037-.04467-.30911.06942-.01901.04754-.03072.11994-.039.20179-.08191-.04303-.16382-.08612-.24817-.12841.09995-.0493.18186-.10446.22233-.16949l.01073-.03992c-.05412-.31241-.85762-.64968-1.20038-.88998-.3213-.18552-.64017-.3995-.95123-.50463-.1292-.0373-.24037-.04467-.30911.06942-.07655.19186-.0707.71154.04827,1.16491-3.79469-2.33256-20.5868-12.63101-23.97048-14.72503.00634-.35647-.13993-1.07513-.2311-1.35426-.16626-.50859-.81228-.79729-1.29594-.84958-.87859-7.70512-2.58408-24.92232-3.31591-31.63324.3096.19612.75767.30601,1.06971.28748.39883-.09977.16138-.6395.11994-.93722-.18235-.55344-.38176-2.15606-.66503-1.98108-.08776.11494-.16626.25707-.23939.41059-.06241-.26584-.11555-.52193-.10141-.71269.07411.00683.14627.01048.2116.00658.21453-.05369.24281-.23531.21892-.43746,3.81809-3.10802,15.71898-13.14832,19.94175-16.5816.19454-.1584.15846-.20051.15651.4474-.02828,1.8662-.06728,6.68745-.09556,8.66196-.09556-.03206-.19405-.06387-.29546-.09538-.64212-.18338-1.34421-.40876-1.38858.45185.00683.54314-.00829,1.56099.3018,1.95701l.07947.04181c.1765.01865.38469-.0874.59629-.23251-.00195.34172-.00146.70696.00049,1.03954-.45002-.08782-.82885-.03687-.86103.58702.00683.54314-.00878,1.56099.3018,1.95695l.07947.04181c.40224.04242.96781-.5496,1.36468-.82178.29692-.24317.66065-.49634.81764-.79265.15456-.26749-.15553-.47037-.63188-.65236.32472-.28961.64212-.56703.89029-.65796,4.72983,5.27761,19.44688,21.79906,22.70233,25.44523-.12189-.07984-.27596-.09556-.48122.01743-.48415.28266-1.34226.79357-1.45586,1.34689l.00049.03401c.06143.45794.87127.79296,1.29643,1.06343.37445.17107,1.24133.83922,1.2857.10732.00683-.13749-.00926-.32435-.03803-.53522.42077.24092.89516.52059,1.30471.73671-.2272.20331-.40809.42649-.45587.65833l.00049.03401c.06192.45788.87127.79296,1.29691,1.06343.37396.17107,1.24084.83922,1.28521.10732.01853-.3686-.12628-1.09007-.24281-1.68355-.08825-.46233-.27547-1.20306-.88395-.8681-.0941.05503-.20429.12092-.31887.19186-.0629-.24476-.11848-.47025-.1019-.60957,6.507.16748,26.41608.99353,29.97675,1.10567.06923.00573.12384.04083.17357.0863-.17991-.05656-.3569-.09568-.52559-.08776-.5841.13786-.13749,1.1735.01024,2.01424.11019.49817.35446,1.13638.94099.68137.4627-.38225,1.36907-.9889,1.45537-1.56934l-.01024-.05808c-.06338-.18156-.2784-.32618-.52803-.44801.17065-.11842.32569-.22318.43442-.20685.52364.41894,5.46215,4.46948,10.7873,8.82511,4.08382,3.31493,10.35776,8.48753,13.79019,11.2957.00536.07161-.07606.14359-.20478.24037-.14968-.28272-.42564-.21495-.85079.13347-.39444.36336-1.2111.7954-1.36078,1.25194l.0156.05022c.00975.00762.02389.01383.03462.02121-5.69862,3.07395-30.88507,17.49505-41.18189,22.93099-.02925-.07301-.06192-.14797-.09946-.22525-.48756-1.21903-1.94878-.7183-2.76399-.23909l-.01804.04577c-.00975.09154.16528.18686.46221.30771.09702.03504.20478.07777.30863.11793-.15797.05772-.31301.10678-.45831.11854-.90833-.65559-20.48295-11.86889-24.97631-14.76696ZM110.38429,184.9846c-.1648-.06747-.27937-.11665-.27742-.12226.11555-.16821.25646-.34519.37786-.50901l.01463-.01323c.08435-.04589.40078-.22373.50609-.28175.14383-.08459.0941-.06088.15504.0841.03852.11092.09702.27949.15992.45971.0156.04571.0312.09209.04729.13828-.32715.0156-.6704.11397-.98341.24415ZM110.97083,183.94951c-.15163.08435-.35446.19783-.5056.28181l-.01414.00085c-.15602-.09611-.8859-.5131-1.00096-.59458.09166-.04156.23598-.10032.39492-.16333.37737.14785.78205.31021,1.17941.44575-.01414.00817-.02974.01633-.05363.0295ZM109.26924,184.53922c-.03608-.14676-.10239-.31819-.18966-.49896-.03267-.08112-.06972-.15358-.11068-.22001.18089-.07198.32472-.12798.33398-.12658.02048-.00421.80155.47385,1.03997.61018.05607.04937-.23354.33258-.27157.41534-.10824.14925-.06777.10281-.20575.05875-.11165-.04449-.34081-.13621-.59629-.23872ZM141.07336,187.88078c.26426.0437.55241.08953.83373.13646.05753.13664.12189.27096.17455.38152.01804.03699.03803.07435.05851.11153-.54802-.01006-1.15991-.02773-1.63041.08447l-.03169-.01097c-.03072-.06009-.07021-.15419-.11116-.2542.24671-.1328.48756-.29833.70648-.4488ZM141.23475,189.02088c-.16821-.01987-.39688-.07874-.62895-.12933-.04144-.10531-.06826-.17869-.05851-.1743.18674-.04242.49487-.11336.79131-.09672.1331.00658.57386.00335.87078.00676.03169.05022.06533.09812.1019.14395-.13115.09617-.30863.22611-.4978.36518-.19551-.03657-.39736-.06411-.57874-.11555ZM171.01744,188.585l-.294.22257-.36811-.0039.03023-.01999c.20575-.06216.42272-.12951.63188-.19868ZM171.52451,188.76339c-.08484.04845-.16821.10062-.25012.15681-.34276.07448-.78254.17004-1.11993.24335-.09702-.03114-.19502-.0376-.29302-.02968.09166-.06253.19405-.13243.26475-.1804.09897-.06058.45002-.01.55582-.02267.13115.03961.47245-.34916.54071-.33471.0312-.00091.18966.09757.3018.16729ZM195.59737,170.77085c-.3803.29351-.89565.62298-.8781.92301l.02584.04089c.01609.01268.03754.02365.05509.03596-.30814.25103-.63188.51383-.91808.74304.09702-.26852.17113-.51377.18917-.67351-.00683-.02992-.0273-.04053-.06143-.03285-.23744.11872-.46757.31228-.69819.50926.08386-.26261.1726-.51499.24817-.63871.15163-.11823.34617-.26584.52413-.40151.09069-.03827.1687-.09812.23403-.17662.21404-.13457.50219-.50475.70014-.52017.08191.02042.34958.11208.57922.19119ZM194.63687,170.45686c.31984.08849.12969.08758-.12872.3433-.00975.00829-.0234.01932-.03462.02846.04973-.10982.10434-.23446.16333-.37177ZM193.81143,171.33611c-.10775.07978-.19307.14334-.2194.16522l-.00488-.00049c.00195-.00561.02292-.06826.05412-.16199.05802.00427.11409.00128.17016-.00274ZM195.03082,170.37665c-.05997.03852-.10629.01999-.2077-.00079l-.04729-.01237c-.0312-.01255-.05802-.01926-.08727-.02925.19795-.47196.40273-1.01425.4349-1.2949-.00731-.02992-.02779-.04053-.06192-.03285-.3764.18808-.73329.56277-1.1053.84409-.32813.34129-1.16576.76998-1.14382,1.1504l.02584.04083c.17065.13518.43734.24567.70745.28425-.04973.13384-.10434.26036-.17455.36488-1.10384.83751-19.15288,14.49307-21.80278,16.49268-.54314-.20246-1.11262.30278-1.58555.63054-.06631.00378-.14773-.00134-.2862-.00384-5.97165-.06015-21.39371-.22117-25.71692-.27517.07898-.05363.15651-.1072.22964-.15699.27937-.20051.44173-.36049.3842-.47635-.2901-.29083-.83178-.27657-1.25693-.39724-.43344-.05107-1.27156-.36518-1.52753-.11287l-.02243.04553c-.03023.12969.01024.29967.0746.47202-.22282-.03943-.44856-.07838-.66601-.11494.25353-.18637.40078-.33727.34617-.44728-.2901-.29077-.83178-.27651-1.25693-.39718-.43344-.05107-1.27107-.36518-1.52753-.11287l-.02243.04553c-.06095.2603.16236.68271.29497.96153.19161.39407.51194.83263.99365.64346.07021-.02493.14188-.05973.21258-.09367.03559.10342.05997.19137.04486.23945-7.92629,1.41423-33.94501,5.89852-37.40426,6.51199-.1214-.04035-.25109-.08538-.38859-.13451.0039-.10611.0902-.24378.21306-.38938,1.83518-2.45499,6.27004-8.30013,7.12425-9.44577.09702-.12274.16333-.13579.33739-.09203-.11701.05631-.2272.11555-.32715.17443l-.01804.04583c-.00975.09148.16528.18686.46172.30765.67235.24293,1.53728.63724,2.25546.80058.41638.07923.32033-.38639.06485-.91491-.22915-.57301-.6743-.7634-1.16527-.7573-.09849-.28778-.20624-.5827-.22867-.76169.15895.05046.31691.09897.46611.13292.31838.06052.33642-.19789.21355-.55856.71428-.39956,1.94049-1.073,3.53628-1.96841,9.584-5.33746,32.44527-18.08646,37.71971-21.01768.45294.23519,1.26132.33873,1.73816.30278.32764-.08733.41589-.3608.43295-.72756.39492.08368.81374.17595,1.18819.23409-.26572.20709-.50073.42515-.57435.64925l.0156.05022c.39395.30412,1.35786.44063,1.89613.40004.43344-.11543.44807-.55558.43344-1.10756-.03072-.97421-.31399-1.1039-.89663-.65991-.02535-.17814-.05851-.35391-.05314-.49408-.00146-.23299-.08094-.38018.03657-.50182,2.44073-.59214,5.37098-1.31434,8.81706-2.14868,8.15788-1.98072,19.09584-4.65731,19.89544-4.83515.05656.03041.10629.11092.15261.21221-.18674.00457-.37152.02487-.55046.08703-.58751.29808-.20088,1.05575-.10044,1.73657.0824.39651.28961.87298.89663.30046.48074-.47196,1.41442-1.27339,1.53192-1.80124l-.00683-.04705c-.03218-.08234-.12189-.13451-.23842-.17095.22282-.24073.46123-.49817.68844-.74512.11897.28632.34812.46617.81472.02651.48074-.4719,1.41393-1.27345,1.53192-1.80124l-.00683-.04705c-.10775-.27693-.83178-.23665-1.22719-.26804-.36665-.00402-.74256-.04315-1.09409.07935-.07703.03913-.13603.08715-.18235.14103,1.15308-3.83181,6.44995-21.28462,8.34267-27.56185.38517-1.25742.6938-2.29495.91467-3.02837.15748-.10726.2038-.34471.19405-.63877.08581-.27895.14529-.46154.17406-.52663.09264-.08514.13067.04315.19649.13079.10775.1751.22525.36628.34958.56801-.03462.11403-.05851.22501-.06436.33069l.02974.07466c.1136.12817.28327.22775.4744.31076,1.80105,2.93427,4.68644,7.66313,6.67911,10.90468,3.30615,5.25311,9.29634,15.25348,12.10908,19.77818-.39249.51877-.62554,1.35944-.82642,1.98523-2.65136,2.43257-9.61715,8.13375-12.60444,10.76914-2.54166,2.21225-7.64935,6.48262-9.21784,7.84962ZM217.6332,150.8879c.12189-.16949.24671-.34355.36665-.51103l.1609.2631-.57142.48689.04388-.23897ZM218.07834,150.26644c.03462-.04827.06826-.09544.10141-.14164l.24427-.04827-.19161.44112-.15407-.25122ZM217.3158,151.32445c.06436-.08788.13213-.18028.20185-.277-.00878.03809-.01706.0732-.02292.10196-.05412.05424-.11506.11342-.17894.17503ZM217.77362,151.83554c-.12677.044-.25841.11324-.35348.19362.05022-.27054.10921-.5894.12433-.67515.1175-.17449.48707-.41955.64699-.57794.05314-.06546.18479-.10153.29302-.12603-.04144.11811-.08094.23513-.11799.35141-.1687.24073-.39297.5546-.59287.8341ZM218.74387,150.01328c-.07655.15925-.14724.32636-.21111.4992l-.19064.04979.2233-.51365.17845-.03535ZM218.35674,149.99256l-.03267.01012c-.02243.00427-.04486.00951-.06777.0145.07655-.1069.14676-.20563.20819-.29114.45294-.62316-.27937-.43716-.58507-.17229l-.06972.05912c-.03072.03157-.05802.07094-.08679.10629-.49487-.80716-1.81324-2.95986-3.55091-5.79528-3.4495-5.62792-12.3943-20.22491-15.19388-24.79701.42272.16516.93856.25055,1.28424.32325.94879.11372.24524-1.76442.23403-2.50381-.13603-.93075-.21063-1.678-.7328-.84994-.04388.08514-.09702.17595-.15504.26993-.07216-.41894-.12725-.80813-.0668-1.00627,1.06873-.45496,9.37532-3.48887,15.09588-5.6409,2.01412-.7481,3.52166-1.31252,4.48849-1.67215.07508.23415.18722.24774.38761-.14365.30911-.08557.31935-.2968.41248.51389.02389.13365.04242.28388.05948.43996-.10141-.02651-.19844-.05077-.28084-.07307-.73622-.11372-.19064,1.76436-.18186,2.50375.10531.93075.16333,1.678.5685.84994.29107-.72464,1.03071-1.80776,1.06776-2.60797l-.02292-.07472c-.06095-.08849-.14432-.16211-.23744-.22806.30668-.73731.25743-.49865.43832-.1715.05753.12427.11555.23781.17845.37189,1.62846,3.40379,6.03552,12.58799,6.94044,14.48692-.11506.31643-.15261.50389-.01365.53693l.039.00878c.03657.00079.07216-.00683.10824-.01073-.02292.08776-.06582.19064-.11019.36671-.05071.16857-.11994.39066-.196.63328.04047-.32691.06338-.57849.05314-.68356-.50024,1.10804-1.01315,2.61662-1.47,3.74484-.20868.53351-.33739.85226-.15163.89638l.039.00878c.34422.00731.68015-.201.8937-.49829-1.34031,3.08279-6.01651,13.84413-7.91605,18.21195-.79326,1.64229-.96245,2.61577-1.37492,2.86314ZM227.97097,128.17357c-.02682.06216-.06972.16035-.12043.27693.00878-.04303.01999-.08569.0234-.12945.00926-.07137.0195-.14785.03023-.22757.05899-.00122.09507.01134.0668.08008Z"/>
        <path class="cls-3" d="M100.65841,195.08377c.00195-.0003.0039-.00037.00585-.00067-.00195.00024-.00829-.00134-.00585.00067Z"/>
        <path class="cls-3" d="M101.23471,195.08237h.09654c-.235-.0153-.46513-.02791-.66698.00073.00195-.00024,0-.00232.0078-.00012.14529-.00116.37152-.00043.56265-.00061Z"/>
      </g>
    </g>
  </g>
</svg>