<svg width="25" height="25" viewBox="0 0 25 25" fill="none" xmlns="http://www.w3.org/2000/svg">
<path d="M18.4229 12.5343C18.4822 12.6049 18.515 12.6943 18.515 12.7873C18.515 12.8936 18.4719 12.9956 18.3957 13.0697L14.588 16.7745L14.3136 16.4921L14.0391 16.2105L17.1531 13.1806L5.15445 13.181C4.937 13.181 4.76076 13.0048 4.76076 12.7873C4.76085 12.5699 4.93705 12.3936 5.15444 12.3936L17.1523 12.3933L14.0391 9.36489L14.0116 9.33517C13.8834 9.18227 13.8894 8.95381 14.0315 8.80772C14.1832 8.65204 14.4325 8.64889 14.5883 8.80047L18.3961 12.5053L18.4229 12.5343ZM14.588 16.7745C14.4321 16.9261 14.1831 16.9227 14.0315 16.7669C13.8799 16.6111 13.8834 16.3621 14.0391 16.2105L14.588 16.7745Z" fill="white"/>
<path d="M14.588 16.7745L18.3957 13.0697C18.4719 12.9956 18.515 12.8936 18.515 12.7873C18.515 12.6943 18.4822 12.6049 18.4229 12.5343L18.3961 12.5053L14.5883 8.80047C14.4325 8.64889 14.1832 8.65204 14.0315 8.80772C13.8894 8.95381 13.8834 9.18227 14.0116 9.33517L14.0391 9.36489L17.1523 12.3933L5.15444 12.3936C4.93705 12.3936 4.76085 12.5699 4.76076 12.7873C4.76076 13.0048 4.937 13.181 5.15445 13.181L17.1531 13.1806L14.0391 16.2105M14.588 16.7745L14.3136 16.4921L14.0391 16.2105M14.588 16.7745C14.4321 16.9261 14.1831 16.9227 14.0315 16.7669C13.8799 16.6111 13.8834 16.3621 14.0391 16.2105M14.588 16.7745L14.0391 16.2105" stroke="white" stroke-linecap="round" stroke-linejoin="round"/>
<circle cx="12.5" cy="12.5" r="11.5" stroke="white" stroke-width="2"/>
</svg>
