<svg width="25" height="25" viewBox="0 0 25 25" fill="none" xmlns="http://www.w3.org/2000/svg">
<path d="M6.57707 12.4657C6.5178 12.3951 6.48503 12.3057 6.48499 12.2127C6.48499 12.1064 6.52807 12.0044 6.60425 11.9303L10.412 8.22546L10.6864 8.50785L10.9609 8.78952L7.84693 11.8194L19.8456 11.819C20.063 11.819 20.2392 11.9952 20.2392 12.2127C20.2392 12.4301 20.063 12.6064 19.8456 12.6064L7.84765 12.6067L10.9609 15.6351L10.9884 15.6648C11.1166 15.8177 11.1106 16.0462 10.9685 16.1923C10.8168 16.348 10.5675 16.3511 10.4117 16.1995L6.60389 12.4947L6.57707 12.4657ZM10.412 8.22546C10.5679 8.07393 10.8169 8.07727 10.9685 8.23307C11.1201 8.38888 11.1166 8.63787 10.9609 8.78952L10.412 8.22546Z" fill="white"/>
<path d="M10.412 8.22546L6.60425 11.9303C6.52807 12.0044 6.48499 12.1064 6.48499 12.2127C6.48503 12.3057 6.5178 12.3951 6.57707 12.4657L6.60389 12.4947L10.4117 16.1995C10.5675 16.3511 10.8168 16.348 10.9685 16.1923C11.1106 16.0462 11.1166 15.8177 10.9884 15.6648L10.9609 15.6351L7.84766 12.6067L19.8456 12.6064C20.0629 12.6064 20.2392 12.4301 20.2392 12.2127C20.2392 11.9952 20.063 11.819 19.8456 11.819L7.84693 11.8194L10.9609 8.78952M10.412 8.22546L10.6864 8.50785L10.9609 8.78952M10.412 8.22546C10.5679 8.07393 10.8169 8.07727 10.9685 8.23307C11.1201 8.38888 11.1166 8.63787 10.9609 8.78952M10.412 8.22546L10.9609 8.78952" stroke="white" stroke-linecap="round" stroke-linejoin="round"/>
<circle cx="12.5" cy="12.5" r="11.5" transform="rotate(180 12.5 12.5)" stroke="white" stroke-width="2"/>
</svg>
